<svg xmlns="http://www.w3.org/2000/svg" xmlns:xlink="http://www.w3.org/1999/xlink" width="1080" zoomAndPan="magnify" viewBox="0 0 810 809.999993" height="1080" preserveAspectRatio="xMidYMid meet" version="1.0"><defs><clipPath id="2e2a0a4a74"><path d="M 10 401 L 810 401 L 810 548.371094 L 10 548.371094 Z M 10 401 " clip-rule="nonzero"/></clipPath><clipPath id="7dfc01c96c"><path d="M 0 303.121094 L 128 303.121094 L 128 415 L 0 415 Z M 0 303.121094 " clip-rule="nonzero"/></clipPath></defs><path fill="#010101" d="M 543.691406 452.121094 C 544.183594 452.121094 544.351562 451.957031 543.691406 452.121094 Z M 543.691406 452.121094 " fill-opacity="1" fill-rule="nonzero"/><path fill="#010101" d="M 243.347656 444.679688 C 243.183594 444.679688 243.183594 444.679688 243.015625 444.679688 C 242.851562 445.011719 242.519531 445.339844 242.355469 445.507812 Z M 243.347656 444.679688 " fill-opacity="1" fill-rule="nonzero"/><path fill="#010101" d="M 195.105469 440.378906 C 194.941406 440.378906 194.941406 440.378906 194.777344 440.214844 C 194.777344 440.378906 194.777344 440.546875 195.105469 440.378906 Z M 195.105469 440.378906 " fill-opacity="1" fill-rule="nonzero"/><path fill="#010101" d="M 354.695312 446.332031 C 355.191406 446.332031 355.355469 446.332031 355.519531 446.167969 C 355.355469 446.167969 355.027344 446.167969 354.695312 446.332031 Z M 354.695312 446.332031 " fill-opacity="1" fill-rule="nonzero"/><path fill="#010101" d="M 632.238281 451.625 C 632.238281 451.625 632.074219 451.625 632.074219 451.625 C 632.238281 451.625 632.40625 451.789062 632.570312 451.789062 Z M 632.238281 451.625 " fill-opacity="1" fill-rule="nonzero"/><path fill="#010101" d="M 631.25 452.121094 C 630.257812 451.789062 631.578125 451.625 632.074219 451.625 C 630.917969 451.128906 629.761719 451.128906 628.605469 451.292969 C 628.605469 451.789062 630.753906 451.789062 631.25 452.121094 Z M 631.25 452.121094 " fill-opacity="1" fill-rule="nonzero"/><path fill="#010101" d="M 794.800781 442.695312 L 794.304688 443.027344 C 794.636719 443.027344 794.800781 442.859375 794.800781 442.695312 Z M 794.800781 442.695312 " fill-opacity="1" fill-rule="nonzero"/><path fill="#010101" d="M 350.894531 421.199219 C 351.0625 421.199219 351.390625 421.199219 351.554688 421.035156 C 351.226562 421.035156 351.0625 421.199219 350.894531 421.199219 Z M 350.894531 421.199219 " fill-opacity="1" fill-rule="nonzero"/><path fill="#010101" d="M 768.535156 447.988281 L 768.367188 448.8125 C 768.535156 448.484375 768.699219 448.152344 768.535156 447.988281 Z M 768.535156 447.988281 " fill-opacity="1" fill-rule="nonzero"/><path fill="#010101" d="M 242.355469 445.507812 L 242.023438 445.835938 C 242.191406 445.671875 242.191406 445.671875 242.355469 445.507812 Z M 242.355469 445.507812 " fill-opacity="1" fill-rule="nonzero"/><path fill="#010101" d="M 150.5 437.402344 C 150.5 437.238281 150.335938 436.90625 150.335938 436.742188 C 150.335938 436.742188 150.171875 436.742188 150.171875 436.742188 Z M 150.5 437.402344 " fill-opacity="1" fill-rule="nonzero"/><path fill="#010101" d="M 122.417969 518.929688 C 122.417969 518.929688 122.582031 518.761719 122.582031 518.597656 L 121.589844 518.101562 C 122.085938 518.597656 122.25 518.761719 122.417969 518.929688 Z M 122.417969 518.929688 " fill-opacity="1" fill-rule="nonzero"/><path fill="#010101" d="M 90.53125 430.457031 C 90.53125 430.625 90.367188 430.625 90.367188 430.789062 C 90.53125 430.789062 90.699219 430.953125 90.863281 430.953125 C 91.027344 430.953125 91.027344 430.953125 91.191406 430.953125 C 91.191406 430.953125 91.6875 430.953125 92.019531 431.121094 C 93.339844 431.285156 94.828125 431.285156 96.644531 431.449219 L 96.976562 430.457031 C 96.976562 430.457031 95.15625 430.457031 93.339844 430.457031 C 91.027344 430.457031 90.53125 430.457031 90.53125 430.457031 Z M 90.53125 430.457031 " fill-opacity="1" fill-rule="nonzero"/><g clip-path="url(#2e2a0a4a74)"><path fill="#010101" d="M 49.726562 440.214844 C 49.726562 440.214844 48.074219 437.898438 46.421875 435.417969 C 44.9375 433.269531 43.449219 430.953125 43.449219 430.953125 C 47.082031 434.59375 50.550781 437.898438 53.527344 441.042969 C 56.335938 444.183594 58.976562 447.160156 61.457031 449.972656 C 62.613281 451.460938 63.933594 452.78125 65.089844 454.105469 C 65.917969 455.097656 66.578125 456.089844 67.402344 456.917969 C 68.558594 458.40625 69.550781 459.726562 70.707031 461.214844 C 75.003906 466.839844 78.96875 472.296875 84.585938 478.910156 L 83.757812 478.414062 C 84.253906 479.570312 85.742188 479.738281 88.382812 483.042969 C 89.707031 484.699219 91.359375 487.011719 93.339844 490.652344 C 95.324219 494.289062 97.636719 499.25 100.113281 505.863281 L 99.949219 506.03125 C 100.445312 506.855469 100.773438 506.691406 101.4375 508.511719 C 101.4375 508.511719 101.105469 507.351562 100.773438 506.195312 C 100.445312 505.039062 99.949219 503.878906 99.949219 503.878906 C 101.929688 506.03125 104.078125 507.847656 106.0625 510.992188 C 106.226562 511.816406 106.0625 512.3125 105.894531 512.480469 C 105.894531 512.480469 107.21875 514.464844 108.375 516.449219 C 109.53125 518.433594 110.851562 520.582031 110.851562 520.582031 L 111.183594 523.722656 C 113.164062 525.875 114.984375 523.558594 117.296875 531.164062 C 117.625 527.691406 120.105469 534.140625 120.433594 532.820312 C 120.433594 533.316406 120.433594 534.308594 120.601562 534.96875 C 122.914062 538.9375 127.207031 546.710938 129.023438 548.199219 C 129.023438 548.199219 127.867188 543.734375 126.878906 538.441406 C 125.722656 533.316406 124.398438 527.363281 124.070312 524.714844 C 126.710938 530.835938 125.058594 526.203125 125.058594 524.714844 L 124.398438 524.550781 C 122.914062 520.746094 123.902344 520.25 123.40625 518.265625 C 123.242188 518.265625 123.242188 518.433594 123.242188 518.597656 L 123.574219 518.761719 C 123.40625 519.09375 123.242188 518.929688 123.078125 518.929688 C 122.914062 519.09375 122.582031 519.09375 122.085938 518.101562 L 122.25 518.265625 C 121.261719 516.945312 120.105469 514.296875 119.441406 513.140625 L 120.269531 512.644531 C 118.78125 511.816406 116.964844 507.1875 115.148438 502.226562 C 113.332031 497.265625 111.679688 492.140625 110.523438 490.484375 C 109.367188 486.351562 105.402344 483.042969 103.089844 478.578125 C 98.792969 471.800781 102.097656 474.445312 100.445312 470.640625 C 97.964844 466.175781 100.113281 472.128906 98.792969 470.476562 C 98.792969 470.476562 98.132812 468.988281 97.636719 467.664062 C 96.976562 466.175781 96.480469 464.855469 96.480469 464.855469 C 98.628906 467.664062 97.964844 465.679688 97.964844 465.019531 C 96.480469 462.871094 94.828125 459.894531 93.339844 457.414062 C 91.6875 454.933594 90.203125 452.949219 88.878906 452.949219 C 85.246094 446.664062 85.742188 446.332031 83.925781 443.851562 C 84.253906 444.84375 85.246094 446.664062 85.082031 446.996094 C 83.925781 444.183594 84.089844 446.003906 84.585938 447.160156 C 84.089844 446.828125 83.59375 446.167969 83.097656 445.507812 C 82.769531 445.175781 82.601562 444.679688 82.273438 444.347656 C 82.105469 444.183594 81.941406 443.851562 81.777344 443.6875 C 81.613281 443.523438 81.613281 443.523438 81.613281 443.355469 L 81.445312 443.191406 C 80.949219 442.035156 80.289062 440.875 79.960938 439.882812 C 79.132812 437.898438 78.96875 436.742188 77.152344 436.246094 L 77.8125 436.410156 C 76.488281 436.082031 75.167969 435.914062 74.011719 435.585938 C 72.855469 435.417969 71.863281 435.089844 70.378906 434.097656 C 70.378906 434.097656 70.707031 433.433594 70.707031 433.433594 L 68.066406 431.617188 C 68.066406 430.953125 69.386719 431.78125 69.714844 431.78125 C 67.734375 430.128906 66.246094 428.640625 65.089844 427.316406 C 64.097656 426.488281 65.917969 427.152344 66.742188 427.152344 C 67.734375 427.316406 68.558594 427.480469 69.550781 427.480469 C 69.550781 427.480469 66.414062 426.160156 62.777344 424.835938 C 59.144531 423.515625 55.179688 422.191406 55.179688 422.191406 C 58.316406 422.851562 62.613281 423.84375 66.414062 424.671875 C 69.550781 425.332031 71.699219 425.664062 70.871094 424.835938 C 70.871094 424.835938 72.03125 425.332031 73.1875 425.664062 C 74.175781 426.160156 75.332031 426.488281 75.332031 426.488281 C 77.976562 427.316406 79.296875 427.648438 80.125 427.8125 C 80.949219 427.8125 81.117188 427.648438 81.28125 427.480469 C 81.445312 426.984375 80.949219 426.160156 82.769531 426.65625 C 82.769531 426.65625 83.925781 427.152344 85.082031 427.648438 C 86.238281 428.144531 87.0625 428.640625 87.0625 428.640625 L 83.925781 428.472656 C 85.742188 428.96875 86.898438 429.464844 88.054688 429.796875 C 89.046875 430.292969 90.035156 430.625 91.027344 431.285156 C 90.863281 431.285156 90.863281 431.121094 90.699219 430.953125 L 91.027344 430.953125 C 91.027344 430.789062 91.191406 430.625 91.359375 430.457031 C 91.523438 430.457031 91.523438 430.292969 91.6875 430.292969 C 91.6875 430.292969 91.855469 430.292969 91.855469 430.128906 C 92.019531 430.128906 92.183594 430.128906 92.351562 430.128906 C 93.507812 429.960938 94.992188 429.960938 96.808594 430.128906 C 101.765625 430.625 105.730469 429.632812 113.660156 431.945312 L 115.808594 430.457031 L 121.757812 431.78125 L 121.757812 433.105469 C 115.972656 432.609375 104.90625 432.609375 97.304688 432.113281 L 97.140625 432.773438 C 101.601562 433.105469 106.722656 432.773438 109.695312 433.105469 C 111.183594 433.433594 114.652344 435.089844 112.007812 435.75 L 114.816406 434.59375 C 129.6875 435.253906 129.851562 435.253906 145.214844 437.570312 L 143.894531 436.90625 C 147.03125 436.742188 150.171875 436.410156 150.832031 437.570312 C 160.082031 438.230469 169.832031 439.71875 175.777344 441.703125 L 177.265625 440.214844 C 179.246094 440.378906 182.054688 442.859375 183.210938 440.710938 L 187.507812 440.214844 C 190.152344 440.546875 191.96875 439.71875 194.941406 440.710938 C 195.105469 440.710938 195.273438 440.875 195.4375 440.875 C 195.4375 440.875 195.4375 440.710938 195.4375 440.710938 C 201.550781 441.703125 195.4375 439.386719 202.375 440.546875 C 204.523438 441.703125 205.019531 438.726562 208.324219 439.222656 L 211.628906 441.539062 C 217.742188 443.191406 218.898438 440.875 227.816406 441.371094 C 232.113281 442.363281 234.09375 444.347656 231.121094 445.835938 C 235.085938 444.019531 232.9375 444.515625 238.226562 443.851562 C 239.050781 444.679688 238.390625 444.84375 237.234375 445.507812 C 241.859375 446.664062 240.042969 444.84375 243.511719 445.175781 C 244.667969 443.6875 245.824219 441.207031 246.980469 441.207031 L 245.660156 440.710938 C 249.292969 440.050781 253.425781 439.882812 257.71875 440.875 L 257.554688 441.703125 L 261.519531 440.875 L 261.683594 441.867188 L 268.128906 441.867188 L 267.300781 441.539062 C 268.789062 441.539062 273.910156 441.371094 276.71875 442.035156 L 276.554688 442.53125 C 284.484375 444.679688 291.257812 442.695312 300.839844 442.859375 L 299.515625 444.019531 C 302.65625 445.339844 300.507812 442.363281 304.308594 443.027344 L 304.472656 444.515625 C 307.941406 442.859375 308.769531 445.011719 311.082031 445.835938 L 310.089844 444.019531 L 314.386719 444.515625 C 319.175781 445.339844 317.195312 446.996094 316.53125 447.988281 L 319.835938 446.664062 L 320.496094 448.316406 C 322.976562 446.5 322.808594 448.648438 327.105469 447.820312 C 327.4375 448.484375 326.28125 448.8125 327.765625 449.144531 L 334.871094 447.160156 L 330.574219 447.988281 L 331.234375 445.671875 C 335.695312 444.019531 337.183594 446.167969 340.320312 445.671875 L 338.175781 446.332031 C 343.296875 446.003906 343.460938 446.996094 346.433594 447.65625 C 345.609375 447.160156 344.289062 446.5 346.269531 446.167969 C 347.757812 446.167969 347.09375 446.996094 348.417969 447.324219 C 348.746094 445.671875 352.546875 445.011719 355.851562 445.835938 C 355.851562 446.003906 355.6875 446.332031 355.519531 446.332031 C 356.347656 446.167969 356.84375 445.671875 358.328125 446.167969 L 357.339844 447.988281 L 360.148438 446.332031 C 361.964844 446.828125 364.773438 445.671875 364.605469 446.828125 L 363.449219 447.160156 L 377.660156 448.152344 L 377.824219 449.640625 C 379.3125 447.820312 385.589844 450.632812 385.257812 448.152344 C 387.902344 449.640625 395.832031 447.492188 394.179688 450.300781 C 403.597656 450.796875 408.71875 448.316406 420.117188 449.972656 C 424.082031 452.453125 435.316406 451.957031 442.585938 452.453125 C 456.957031 451.789062 466.207031 451.292969 480.910156 450.796875 C 489.667969 454.269531 502.882812 450.136719 512.300781 452.285156 L 514.945312 451.128906 C 521.222656 453.277344 530.804688 450.964844 539.726562 453.113281 C 541.871094 452.617188 543.027344 452.453125 543.523438 452.453125 C 543.195312 452.453125 542.53125 452.121094 542.367188 451.292969 C 544.847656 451.957031 549.96875 451.292969 549.636719 452.949219 L 548.976562 453.113281 C 548.644531 454.765625 556.574219 452.453125 559.382812 453.941406 L 557.898438 452.121094 L 562.6875 452.453125 L 561.367188 452.78125 C 582.183594 449.144531 591.433594 454.933594 611.09375 451.625 C 608.449219 453.445312 614.894531 450.632812 615.222656 452.78125 C 620.179688 455.429688 624.308594 452.285156 628.441406 451.625 C 628.441406 451.460938 628.441406 451.460938 628.769531 451.292969 L 635.875 451.625 C 631.578125 454.269531 640.996094 449.476562 637.03125 451.625 C 655.367188 453.773438 679.488281 451.957031 700.632812 452.949219 L 699.644531 452.285156 C 705.09375 452.453125 711.703125 451.625 715.832031 452.78125 C 719.964844 453.941406 724.753906 451.128906 726.40625 450.964844 C 730.867188 449.804688 735.160156 452.121094 733.179688 451.957031 C 738.136719 451.625 742.597656 449.144531 749.371094 449.804688 C 750.527344 450.796875 755.316406 450.136719 759.613281 449.144531 C 764.074219 448.152344 768.039062 447.160156 768.367188 448.484375 L 768.367188 448.316406 C 770.679688 448.484375 772.828125 448.316406 774.976562 447.820312 C 776.132812 447.65625 777.125 447.324219 778.28125 447.160156 C 779.273438 446.828125 780.429688 446.5 781.585938 446.167969 C 785.878906 445.011719 790.175781 443.355469 795.132812 442.695312 C 795.132812 442.695312 794.964844 442.859375 794.800781 443.191406 C 794.800781 443.191406 795.792969 442.363281 797.445312 441.042969 C 798.929688 439.71875 800.914062 438.066406 802.894531 436.246094 C 803.886719 435.417969 804.714844 434.425781 805.703125 433.601562 C 806.53125 432.773438 807.355469 431.945312 808.015625 431.121094 C 809.175781 429.300781 810 428.308594 810 428.308594 C 810 428.308594 807.851562 426.984375 805.703125 425.664062 C 803.722656 424.339844 801.738281 422.851562 801.738281 422.851562 C 801.738281 422.851562 801.410156 422.851562 801.078125 422.851562 C 800.582031 422.851562 799.921875 422.851562 799.261719 422.851562 C 797.773438 422.851562 795.628906 422.851562 793.644531 422.523438 C 791.664062 422.355469 789.679688 422.191406 788.191406 421.859375 C 786.707031 421.695312 785.714844 421.53125 785.714844 421.53125 C 785.714844 421.53125 785.21875 421.695312 784.0625 422.027344 C 783.070312 422.355469 781.585938 422.851562 779.765625 423.347656 C 776.132812 424.339844 771.34375 425.496094 766.386719 426.324219 C 763.90625 426.820312 761.265625 427.152344 758.953125 427.480469 C 756.472656 427.8125 754.324219 428.144531 752.34375 428.308594 C 748.378906 428.640625 745.734375 428.804688 745.734375 428.804688 C 745.734375 428.804688 743.585938 428.804688 740.449219 428.640625 C 737.308594 428.472656 733.015625 428.144531 728.71875 427.8125 C 719.964844 427.152344 711.371094 426.488281 711.371094 426.488281 C 711.371094 426.488281 690.0625 426.65625 668.75 426.820312 C 647.4375 426.820312 626.125 426.984375 626.125 426.984375 L 620.015625 428.804688 C 603.328125 425.332031 581.851562 428.804688 563.84375 426.160156 L 563.515625 427.8125 C 558.394531 427.8125 558.722656 426.820312 557.566406 426.488281 C 510.316406 425.992188 461.582031 426.984375 419.125 423.679688 C 414.996094 422.523438 402.605469 422.6875 399.464844 421.53125 C 385.589844 423.183594 371.050781 422.523438 357.171875 421.859375 L 357.667969 421.695312 L 351.226562 421.859375 C 350.894531 421.695312 350.894531 421.53125 351.058594 421.363281 C 343.625 422.519531 332.226562 420.703125 323.140625 419.710938 L 323.636719 419.546875 C 271.265625 417.230469 222.367188 418.058594 170.492188 412.929688 C 158.429688 410.945312 145.378906 410.449219 131.832031 409.953125 C 125.058594 409.789062 118.121094 409.457031 111.347656 409.128906 C 107.878906 408.960938 104.410156 408.632812 100.941406 408.300781 L 95.820312 407.804688 L 93.175781 407.472656 L 88.382812 406.976562 C 85.574219 406.316406 74.34375 405.324219 59.472656 404.332031 C 44.769531 403.339844 26.433594 402.183594 10.242188 401.355469 C 19.988281 410.945312 29.074219 419.875 36.179688 426.984375 C 43.117188 433.929688 48.074219 438.726562 49.726562 440.214844 Z M 49.726562 440.214844 " fill-opacity="1" fill-rule="nonzero"/></g><path fill="#010101" d="M 105.730469 512.644531 L 105.566406 512.480469 C 105.070312 512.808594 105.402344 512.976562 105.730469 512.644531 Z M 105.730469 512.644531 " fill-opacity="1" fill-rule="nonzero"/><path fill="#010101" d="M 69.550781 427.152344 C 69.386719 427.152344 69.386719 427.152344 69.222656 427.152344 L 72.03125 428.308594 Z M 69.550781 427.152344 " fill-opacity="1" fill-rule="nonzero"/><path fill="#010101" d="M 99.453125 467.167969 C 97.636719 464.191406 97.472656 464.191406 97.472656 464.855469 C 98.296875 465.847656 98.957031 466.671875 99.453125 467.167969 Z M 99.453125 467.167969 " fill-opacity="1" fill-rule="nonzero"/><path fill="#010101" d="M 119.609375 535.464844 C 120.269531 536.953125 120.433594 536.292969 120.433594 535.132812 C 119.609375 533.644531 118.949219 532.488281 118.949219 532.488281 C 119.113281 533.480469 119.277344 534.472656 119.609375 535.464844 Z M 119.609375 535.464844 " fill-opacity="1" fill-rule="nonzero"/><path fill="#010101" d="M 124.566406 524.882812 L 125.390625 525.046875 C 124.730469 524.21875 124.566406 524.386719 124.566406 524.882812 Z M 124.566406 524.882812 " fill-opacity="1" fill-rule="nonzero"/><path fill="#010101" d="M 101.765625 354.390625 C 101.929688 354.390625 101.765625 354.226562 101.765625 354.390625 Z M 101.765625 354.390625 " fill-opacity="1" fill-rule="nonzero"/><path fill="#010101" d="M 63.769531 393.085938 C 63.769531 393.085938 63.769531 393.253906 63.769531 393.085938 C 63.933594 393.417969 64.097656 393.582031 64.097656 393.914062 Z M 63.769531 393.085938 " fill-opacity="1" fill-rule="nonzero"/><path fill="#010101" d="M 55.675781 397.054688 C 55.675781 397.222656 55.839844 397.386719 55.675781 397.054688 Z M 55.675781 397.054688 " fill-opacity="1" fill-rule="nonzero"/><path fill="#010101" d="M 111.347656 341.328125 C 111.347656 341.328125 111.347656 341.492188 111.347656 341.328125 C 111.347656 341.328125 111.511719 341.328125 111.511719 341.492188 Z M 111.347656 341.328125 " fill-opacity="1" fill-rule="nonzero"/><path fill="#010101" d="M 111.679688 341.824219 C 111.347656 341.824219 111.347656 341.492188 111.347656 341.328125 C 110.851562 341.164062 110.6875 341.328125 110.6875 341.660156 C 111.019531 341.988281 111.347656 341.660156 111.679688 341.824219 Z M 111.679688 341.824219 " fill-opacity="1" fill-rule="nonzero"/><path fill="#010101" d="M 128.695312 318.34375 L 128.859375 318.507812 C 128.695312 318.507812 128.695312 318.34375 128.695312 318.34375 Z M 128.695312 318.34375 " fill-opacity="1" fill-rule="nonzero"/><path fill="#010101" d="M 125.390625 321.648438 L 126.050781 322.144531 C 125.886719 321.816406 125.554688 321.648438 125.390625 321.648438 Z M 125.390625 321.648438 " fill-opacity="1" fill-rule="nonzero"/><path fill="#010101" d="M 64.097656 393.914062 L 64.265625 394.246094 C 64.265625 394.078125 64.265625 394.078125 64.097656 393.914062 Z M 64.097656 393.914062 " fill-opacity="1" fill-rule="nonzero"/><path fill="#010101" d="M 49.066406 401.6875 C 48.902344 401.519531 48.734375 401.355469 48.734375 401.191406 Z M 49.066406 401.6875 " fill-opacity="1" fill-rule="nonzero"/><path fill="#010101" d="M 8.921875 414.089844 C 8.921875 414.089844 9.085938 414.253906 9.085938 414.417969 L 8.921875 413.921875 C 8.921875 413.921875 8.921875 413.921875 8.921875 414.089844 Z M 8.921875 414.089844 " fill-opacity="1" fill-rule="nonzero"/><path fill="#010101" d="M 38.164062 405.488281 C 38.164062 405.488281 38.164062 405.65625 38.328125 405.820312 C 38.65625 405.984375 39.152344 405.65625 39.484375 405.324219 L 38.988281 404.496094 Z M 38.164062 405.488281 " fill-opacity="1" fill-rule="nonzero"/><g clip-path="url(#7dfc01c96c)"><path fill="#010101" d="M 15.199219 393.417969 L 17.179688 394.410156 C 14.703125 397.222656 12.226562 396.558594 10.574219 399.535156 L 10.40625 399.039062 C 9.746094 398.875 12.058594 402.84375 4.957031 400.859375 L 4.789062 400.695312 C 4.625 400.859375 4.957031 401.191406 4.296875 400.859375 L 5.617188 401.355469 C 5.453125 402.015625 5.617188 403.007812 5.121094 403.503906 C 4.957031 403.339844 4.625 403.007812 4.460938 402.84375 L 3.304688 404 L 2.148438 403.175781 C 2.148438 404 3.800781 406.152344 1.816406 405.65625 C 3.304688 406.976562 1.816406 406.976562 2.476562 407.640625 C 2.3125 407.472656 1.984375 407.308594 1.652344 407.144531 C 1.15625 407.804688 0 408.960938 0.332031 410.121094 C 0.332031 410.121094 5.121094 411.773438 6.9375 412.929688 C 5.617188 413.097656 6.773438 413.261719 7.269531 413.757812 L 7.105469 413.261719 C 7.929688 413.261719 8.589844 414.253906 9.085938 414.417969 C 9.085938 414.417969 8.921875 414.253906 8.921875 414.089844 L 8.921875 414.253906 C 8.757812 414.089844 8.757812 413.921875 8.757812 413.921875 C 8.589844 413.757812 8.589844 413.59375 8.757812 413.425781 L 8.757812 413.59375 C 8.921875 413.261719 9.417969 413.097656 9.746094 413.097656 L 10.242188 413.921875 C 9.582031 412.105469 14.703125 414.417969 15.363281 414.089844 C 16.6875 414.75 16.519531 412.929688 17.511719 412.929688 C 18.832031 412.433594 18.832031 413.757812 19.988281 414.089844 C 21.144531 414.089844 19.164062 413.261719 19.496094 412.929688 L 21.144531 413.425781 C 20.652344 413.921875 21.3125 414.253906 21.640625 414.417969 C 22.46875 414.089844 24.78125 414.75 23.789062 412.929688 C 25.277344 413.097656 25.773438 413.757812 26.265625 413.425781 C 25.9375 413.261719 25.441406 413.097656 25.277344 412.765625 C 26.101562 413.261719 25.277344 412.433594 25.109375 412.433594 C 25.277344 411.277344 30.398438 413.097656 29.242188 411.277344 L 29.40625 411.609375 C 28.582031 410.121094 27.425781 409.128906 27.425781 407.96875 L 28.085938 408.300781 L 28.085938 407.472656 C 28.746094 407.640625 28.746094 408.136719 28.910156 408.300781 C 29.242188 407.144531 30.726562 407.144531 31.71875 406.8125 L 28.25 403.835938 C 29.570312 404.167969 32.050781 404.992188 31.390625 403.671875 L 32.710938 404.496094 C 35.847656 405.820312 33.039062 402.84375 34.03125 403.007812 L 35.683594 403.835938 L 35.023438 404.332031 C 36.179688 404.496094 36.839844 404.664062 37.996094 405.160156 C 37.996094 405.160156 37.832031 405.160156 37.832031 404.992188 L 37.832031 404.828125 C 37.5 404.167969 37.5 403.339844 37.996094 403.007812 C 38.824219 402.679688 38.65625 401.355469 40.804688 401.851562 L 40.144531 400.363281 L 41.632812 400.527344 L 42.457031 401.519531 C 41.632812 402.015625 40.308594 403.671875 39.152344 404.496094 L 39.484375 404.992188 C 40.144531 404.496094 40.476562 403.503906 40.972656 403.339844 C 41.300781 403.339844 42.621094 404.167969 42.789062 405.160156 L 42.457031 403.835938 C 44.605469 402.183594 44.441406 402.015625 47.578125 401.519531 L 46.917969 401.191406 C 47.082031 400.527344 47.414062 399.867188 48.074219 400.695312 C 49.5625 399.867188 51.378906 399.371094 53.359375 400.03125 L 52.535156 398.710938 C 52.867188 398.542969 54.683594 400.03125 53.527344 398.214844 L 53.691406 397.222656 C 54.1875 397.054688 53.855469 396.0625 54.847656 396.394531 C 54.847656 396.394531 55.011719 396.394531 55.011719 396.394531 C 55.011719 396.394531 55.011719 396.394531 54.847656 396.230469 C 56.167969 396.0625 54.023438 395.070312 55.507812 395.070312 C 56.5 395.734375 54.683594 393.253906 55.34375 393.085938 L 57.160156 394.410156 C 58.8125 394.742188 57.65625 392.921875 58.8125 391.765625 C 59.96875 391.929688 61.457031 393.085938 62.117188 394.742188 C 61.457031 392.757812 61.457031 393.582031 61.621094 392.09375 C 62.28125 392.589844 62.28125 392.921875 62.613281 393.582031 C 63.933594 393.75 62.613281 392.589844 63.109375 392.261719 C 62.28125 390.9375 60.796875 388.789062 60.960938 388.621094 L 60.464844 388.457031 C 60.464844 387.300781 60.796875 386.636719 61.785156 386.804688 L 62.28125 387.464844 L 62.613281 386.636719 L 63.273438 387.300781 L 63.933594 386.308594 L 63.605469 386.140625 C 63.769531 385.8125 64.265625 384.984375 64.925781 385.148438 L 65.257812 385.644531 C 67.570312 385.976562 66.90625 383.496094 68.0625 382.339844 L 68.726562 383.332031 C 69.882812 383.828125 67.734375 381.84375 68.558594 381.84375 L 69.550781 382.835938 C 68.726562 381.015625 70.378906 382.667969 71.203125 382.835938 L 69.882812 381.511719 L 70.707031 381.347656 C 71.699219 381.179688 72.691406 382.667969 73.1875 383.496094 L 72.691406 382.007812 L 73.847656 383.164062 C 72.855469 381.511719 74.34375 383.164062 74.34375 381.84375 C 74.835938 382.339844 74.835938 382.667969 75.332031 382.667969 L 74.671875 380.1875 L 74.839844 381.511719 L 73.351562 379.691406 C 72.691406 377.875 74.34375 379.195312 74.34375 378.371094 L 74.507812 379.195312 C 74.839844 378.203125 75.5 378.867188 76.324219 378.867188 C 75.828125 378.699219 75.332031 378.371094 75.332031 377.875 C 75.5 377.542969 75.996094 378.371094 76.324219 378.371094 C 75.332031 377.210938 75.167969 376.054688 76.160156 376.21875 C 76.324219 376.386719 76.488281 376.550781 76.488281 376.714844 C 76.488281 376.386719 76.160156 376.054688 76.65625 376.21875 L 77.644531 377.707031 L 76.820312 376.054688 C 77.316406 376.21875 76.820312 374.898438 77.644531 375.890625 L 77.8125 376.21875 L 79.960938 374.730469 L 80.949219 375.722656 C 79.792969 374.070312 82.4375 375.226562 80.785156 373.574219 C 82.105469 374.234375 81.613281 371.589844 83.261719 373.738281 C 84.585938 372.746094 83.59375 370.265625 85.90625 369.769531 C 88.054688 370.929688 89.046875 368.945312 90.035156 368.28125 C 91.191406 365.800781 91.855469 363.984375 93.175781 361.503906 C 96.644531 362.660156 95.160156 357.863281 97.636719 358.03125 L 96.976562 356.871094 C 99.289062 357.535156 98.628906 354.558594 101.105469 354.722656 C 100.941406 354.0625 100.941406 353.730469 100.941406 353.730469 C 100.773438 353.730469 100.609375 353.730469 99.949219 353.070312 C 100.609375 353.070312 100.773438 351.910156 101.929688 353.070312 L 101.929688 353.234375 C 103.089844 354.390625 102.261719 351.746094 103.75 352.242188 L 102.261719 351.25 L 103.089844 350.753906 L 103.253906 351.085938 C 102.921875 345.792969 108.210938 348.273438 107.878906 343.148438 C 109.035156 344.800781 107.546875 341.988281 109.199219 343.3125 C 111.679688 344.46875 109.863281 341.660156 109.863281 340.667969 C 109.863281 340.667969 109.695312 340.5 109.53125 340.335938 L 110.523438 339.507812 C 112.007812 341.824219 109.53125 337.359375 110.6875 339.34375 C 114.320312 338.1875 115.644531 333.554688 118.78125 331.242188 L 118.121094 330.910156 C 118.78125 330.25 118.949219 328.761719 120.269531 328.925781 C 121.589844 329.089844 119.9375 326.609375 120.105469 326.28125 C 119.773438 324.957031 121.921875 325.785156 121.589844 325.949219 C 121.921875 325.121094 120.601562 322.972656 122.085938 322.640625 C 124.070312 323.800781 122.417969 318.671875 124.398438 320.328125 L 124.234375 320.160156 C 126.546875 319.996094 125.058594 317.019531 127.375 316.6875 C 127.375 316.6875 127.539062 316.855469 127.539062 317.019531 L 123.574219 309.742188 L 116.304688 305.277344 L 109.199219 303.292969 C 109.199219 303.292969 108.375 304.949219 107.546875 306.765625 C 106.722656 308.421875 105.730469 310.238281 105.730469 310.238281 L 99.949219 313.214844 C 99.949219 313.214844 99.453125 313.878906 98.628906 315.035156 C 97.800781 316.191406 96.644531 317.515625 95.652344 319.003906 C 94.496094 320.492188 93.507812 321.816406 92.679688 322.972656 C 91.855469 323.964844 91.191406 324.792969 91.191406 324.792969 L 91.855469 326.777344 C 87.394531 326.609375 87.890625 332.066406 83.925781 332.5625 L 85.082031 333.722656 C 84.585938 334.382812 83.925781 333.722656 83.429688 333.722656 C 78.140625 339.839844 73.847656 347.28125 67.074219 350.753906 C 65.917969 350.421875 64.761719 352.40625 63.605469 351.910156 C 63.273438 354.886719 61.457031 356.707031 59.472656 358.195312 L 59.472656 358.03125 L 58.8125 359.023438 C 58.648438 359.023438 58.484375 358.855469 58.484375 358.691406 C 58.484375 360.675781 56.003906 360.839844 54.519531 361.335938 L 54.519531 361.171875 C 47.578125 366.792969 43.117188 374.566406 34.691406 378.203125 C 32.214844 378.371094 30.5625 380.023438 29.078125 381.675781 C 27.425781 383.332031 25.773438 384.984375 23.128906 385.480469 C 22.632812 385.8125 15.527344 392.261719 15.199219 393.417969 Z M 15.199219 393.417969 " fill-opacity="1" fill-rule="nonzero"/></g><path fill="#010101" d="M 4.789062 403.007812 C 4.460938 402.511719 4.460938 402.679688 4.789062 403.007812 Z M 4.789062 403.007812 " fill-opacity="1" fill-rule="nonzero"/><path fill="#010101" d="M 32.050781 407.308594 L 32.710938 407.96875 Z M 32.050781 407.308594 " fill-opacity="1" fill-rule="nonzero"/><path fill="#010101" d="M 21.476562 415.246094 C 22.136719 415.082031 21.972656 414.914062 21.808594 414.75 C 21.640625 414.914062 21.476562 415.082031 21.476562 415.246094 Z M 21.476562 415.246094 " fill-opacity="1" fill-rule="nonzero"/><path fill="#010101" d="M 1.488281 406.648438 C 1.15625 406.8125 1.488281 406.976562 1.984375 407.308594 C 2.148438 407.144531 2.3125 406.976562 2.3125 406.976562 C 2.148438 406.976562 1.652344 406.8125 1.488281 406.648438 Z M 1.488281 406.648438 " fill-opacity="1" fill-rule="nonzero"/><path fill="#010101" d="M 7.597656 413.921875 L 7.765625 414.417969 C 7.765625 414.253906 7.765625 414.089844 7.597656 413.921875 Z M 7.597656 413.921875 " fill-opacity="1" fill-rule="nonzero"/></svg>