<svg xmlns="http://www.w3.org/2000/svg" xmlns:xlink="http://www.w3.org/1999/xlink" width="1080" zoomAndPan="magnify" viewBox="0 0 810 809.999993" height="1080" preserveAspectRatio="xMidYMid meet" version="1.0"><defs><clipPath id="606ef67ddd"><path d="M 0 303.355469 L 800 303.355469 L 800 451 L 0 451 Z M 0 303.355469 " clip-rule="nonzero"/></clipPath><clipPath id="8a6a5d01d1"><path d="M 682 437 L 810 437 L 810 548.605469 L 682 548.605469 Z M 682 437 " clip-rule="nonzero"/></clipPath></defs><path fill="#010101" d="M 266.308594 399.605469 C 265.816406 399.605469 265.648438 399.769531 266.308594 399.605469 Z M 266.308594 399.605469 " fill-opacity="1" fill-rule="nonzero"/><path fill="#010101" d="M 566.652344 407.046875 C 566.816406 407.046875 566.816406 407.046875 566.984375 407.046875 C 567.148438 406.714844 567.480469 406.386719 567.644531 406.21875 Z M 566.652344 407.046875 " fill-opacity="1" fill-rule="nonzero"/><path fill="#010101" d="M 614.894531 411.347656 C 615.058594 411.347656 615.058594 411.347656 615.222656 411.511719 C 615.222656 411.347656 615.222656 411.179688 614.894531 411.347656 Z M 614.894531 411.347656 " fill-opacity="1" fill-rule="nonzero"/><path fill="#010101" d="M 455.304688 405.394531 C 454.808594 405.394531 454.644531 405.394531 454.480469 405.558594 C 454.644531 405.558594 454.972656 405.558594 455.304688 405.394531 Z M 455.304688 405.394531 " fill-opacity="1" fill-rule="nonzero"/><path fill="#010101" d="M 177.761719 400.101562 C 177.761719 400.101562 177.925781 400.101562 177.925781 400.101562 C 177.761719 400.101562 177.59375 399.9375 177.429688 399.9375 Z M 177.761719 400.101562 " fill-opacity="1" fill-rule="nonzero"/><path fill="#010101" d="M 178.75 399.605469 C 179.742188 399.9375 178.421875 400.101562 177.925781 400.101562 C 179.082031 400.597656 180.238281 400.597656 181.394531 400.433594 C 181.394531 399.9375 179.246094 399.9375 178.75 399.605469 Z M 178.75 399.605469 " fill-opacity="1" fill-rule="nonzero"/><path fill="#010101" d="M 15.199219 409.03125 L 15.695312 408.699219 C 15.363281 408.699219 15.199219 408.867188 15.199219 409.03125 Z M 15.199219 409.03125 " fill-opacity="1" fill-rule="nonzero"/><path fill="#010101" d="M 459.105469 430.527344 C 458.9375 430.527344 458.609375 430.527344 458.445312 430.691406 C 458.773438 430.691406 458.9375 430.527344 459.105469 430.527344 Z M 459.105469 430.527344 " fill-opacity="1" fill-rule="nonzero"/><path fill="#010101" d="M 41.464844 403.738281 L 41.632812 402.914062 C 41.464844 403.242188 41.300781 403.574219 41.464844 403.738281 Z M 41.464844 403.738281 " fill-opacity="1" fill-rule="nonzero"/><path fill="#010101" d="M 567.644531 406.21875 L 567.976562 405.890625 C 567.808594 406.054688 567.808594 406.054688 567.644531 406.21875 Z M 567.644531 406.21875 " fill-opacity="1" fill-rule="nonzero"/><path fill="#010101" d="M 659.5 414.324219 C 659.5 414.488281 659.664062 414.820312 659.664062 414.984375 C 659.664062 414.984375 659.828125 414.984375 659.828125 414.984375 Z M 659.5 414.324219 " fill-opacity="1" fill-rule="nonzero"/><path fill="#010101" d="M 687.582031 332.796875 C 687.582031 332.796875 687.417969 332.964844 687.417969 333.128906 L 688.410156 333.625 C 687.914062 333.128906 687.75 332.964844 687.582031 332.796875 Z M 687.582031 332.796875 " fill-opacity="1" fill-rule="nonzero"/><path fill="#010101" d="M 719.46875 421.269531 C 719.46875 421.101562 719.632812 421.101562 719.632812 420.9375 C 719.46875 420.9375 719.300781 420.773438 719.136719 420.773438 C 718.972656 420.773438 718.972656 420.773438 718.808594 420.773438 C 718.808594 420.773438 718.3125 420.773438 717.980469 420.605469 C 716.660156 420.441406 715.171875 420.441406 713.355469 420.277344 L 713.023438 421.269531 C 713.023438 421.269531 714.84375 421.269531 716.660156 421.269531 C 718.972656 421.269531 719.46875 421.269531 719.46875 421.269531 Z M 719.46875 421.269531 " fill-opacity="1" fill-rule="nonzero"/><g clip-path="url(#606ef67ddd)"><path fill="#010101" d="M 760.273438 411.511719 C 760.273438 411.511719 761.925781 413.828125 763.578125 416.308594 C 765.0625 418.457031 766.550781 420.773438 766.550781 420.773438 C 762.917969 417.132812 759.445312 413.828125 756.472656 410.683594 C 753.664062 407.542969 751.023438 404.566406 748.542969 401.753906 C 747.386719 400.265625 746.066406 398.945312 744.910156 397.621094 C 744.082031 396.628906 743.421875 395.636719 742.597656 394.808594 C 741.441406 393.320312 740.449219 392 739.292969 390.511719 C 734.996094 384.886719 731.03125 379.429688 725.414062 372.816406 L 726.242188 373.3125 C 725.746094 372.15625 724.257812 371.988281 721.617188 368.683594 C 720.292969 367.027344 718.640625 364.714844 716.660156 361.074219 C 714.675781 357.4375 712.363281 352.476562 709.886719 345.863281 L 710.050781 345.695312 C 709.554688 344.871094 709.226562 345.035156 708.5625 343.214844 C 708.5625 343.214844 708.894531 344.375 709.226562 345.53125 C 709.554688 346.6875 710.050781 347.847656 710.050781 347.847656 C 708.070312 345.695312 705.921875 343.878906 703.9375 340.734375 C 703.773438 339.910156 703.9375 339.414062 704.105469 339.246094 C 704.105469 339.246094 702.78125 337.261719 701.625 335.277344 C 700.46875 333.292969 699.148438 331.144531 699.148438 331.144531 L 698.816406 328.003906 C 696.835938 325.851562 695.015625 328.167969 692.703125 320.5625 C 692.375 324.035156 689.894531 317.585938 689.566406 318.90625 C 689.566406 318.410156 689.566406 317.417969 689.398438 316.757812 C 687.085938 312.789062 682.792969 305.015625 680.976562 303.527344 C 680.976562 303.527344 682.132812 307.992188 683.121094 313.285156 C 684.277344 318.410156 685.601562 324.363281 685.929688 327.011719 C 683.289062 320.890625 684.941406 325.523438 684.941406 327.011719 L 685.601562 327.175781 C 687.085938 330.980469 686.097656 331.476562 686.59375 333.460938 C 686.757812 333.460938 686.757812 333.292969 686.757812 333.128906 L 686.425781 332.964844 C 686.59375 332.632812 686.757812 332.796875 686.921875 332.796875 C 687.085938 332.632812 687.417969 332.632812 687.914062 333.625 L 687.75 333.460938 C 688.738281 334.78125 689.894531 337.429688 690.558594 338.585938 L 689.730469 339.082031 C 691.21875 339.910156 693.035156 344.539062 694.851562 349.5 C 696.667969 354.460938 698.320312 359.585938 699.476562 361.242188 C 700.632812 365.375 704.597656 368.683594 706.910156 373.148438 C 711.207031 379.925781 707.902344 377.28125 709.554688 381.085938 C 712.035156 385.550781 709.886719 379.597656 711.207031 381.25 C 711.207031 381.25 711.867188 382.738281 712.363281 384.0625 C 713.023438 385.550781 713.519531 386.871094 713.519531 386.871094 C 711.371094 384.0625 712.035156 386.046875 712.035156 386.707031 C 713.519531 388.855469 715.171875 391.832031 716.660156 394.3125 C 718.3125 396.792969 719.796875 398.777344 721.121094 398.777344 C 724.753906 405.0625 724.257812 405.394531 726.074219 407.875 C 725.746094 406.882812 724.753906 405.0625 724.917969 404.730469 C 726.074219 407.542969 725.910156 405.722656 725.414062 404.566406 C 725.910156 404.898438 726.40625 405.558594 726.902344 406.21875 C 727.230469 406.550781 727.398438 407.046875 727.726562 407.378906 C 727.894531 407.542969 728.058594 407.875 728.222656 408.039062 C 728.386719 408.203125 728.386719 408.203125 728.386719 408.371094 L 728.554688 408.535156 C 729.050781 409.691406 729.710938 410.851562 730.039062 411.84375 C 730.867188 413.828125 731.03125 414.984375 732.847656 415.480469 L 732.1875 415.316406 C 733.511719 415.644531 734.832031 415.8125 735.988281 416.140625 C 737.144531 416.308594 738.136719 416.636719 739.621094 417.628906 C 739.621094 417.628906 739.292969 418.292969 739.292969 418.292969 L 741.933594 420.109375 C 741.933594 420.773438 740.613281 419.945312 740.285156 419.945312 C 742.265625 421.597656 743.753906 423.085938 744.910156 424.410156 C 745.898438 425.234375 744.082031 424.574219 743.257812 424.574219 C 742.265625 424.410156 741.441406 424.242188 740.449219 424.242188 C 740.449219 424.242188 743.585938 425.566406 747.222656 426.890625 C 750.855469 428.210938 754.820312 429.535156 754.820312 429.535156 C 751.683594 428.875 747.386719 427.882812 743.585938 427.054688 C 740.449219 426.394531 738.300781 426.0625 739.128906 426.890625 C 739.128906 426.890625 737.96875 426.394531 736.8125 426.0625 C 735.824219 425.566406 734.667969 425.234375 734.667969 425.234375 C 732.023438 424.410156 730.703125 424.078125 729.875 423.914062 C 729.050781 423.914062 728.882812 424.078125 728.71875 424.242188 C 728.554688 424.738281 729.050781 425.566406 727.230469 425.070312 C 727.230469 425.070312 726.074219 424.574219 724.917969 424.078125 C 723.761719 423.582031 722.9375 423.085938 722.9375 423.085938 L 726.074219 423.25 C 724.257812 422.753906 723.101562 422.257812 721.945312 421.929688 C 720.953125 421.433594 719.964844 421.101562 718.972656 420.441406 C 719.136719 420.441406 719.136719 420.605469 719.300781 420.769531 L 718.972656 420.769531 C 718.972656 420.9375 718.808594 421.101562 718.640625 421.265625 C 718.476562 421.265625 718.476562 421.433594 718.3125 421.433594 C 718.3125 421.433594 718.144531 421.433594 718.144531 421.597656 C 717.980469 421.597656 717.816406 421.597656 717.648438 421.597656 C 716.492188 421.761719 715.007812 421.761719 713.191406 421.597656 C 708.234375 421.101562 704.269531 422.09375 696.339844 419.777344 L 694.191406 421.265625 L 688.242188 419.945312 L 688.242188 418.621094 C 694.027344 419.117188 705.09375 419.117188 712.695312 419.613281 L 712.859375 418.953125 C 708.398438 418.621094 703.277344 418.953125 700.304688 418.621094 C 698.816406 418.292969 695.347656 416.636719 697.992188 415.976562 L 695.183594 417.132812 C 680.3125 416.472656 680.148438 416.472656 664.785156 414.15625 L 666.105469 414.820312 C 662.96875 414.984375 659.828125 415.316406 659.167969 414.15625 C 649.917969 413.496094 640.167969 412.007812 634.222656 410.023438 L 632.734375 411.511719 C 630.753906 411.347656 627.945312 408.867188 626.789062 411.015625 L 622.492188 411.511719 C 619.847656 411.179688 618.03125 412.007812 615.058594 411.015625 C 614.894531 411.015625 614.726562 410.851562 614.5625 410.851562 C 614.5625 410.851562 614.5625 411.015625 614.5625 411.015625 C 608.449219 410.023438 614.5625 412.339844 607.625 411.179688 C 605.476562 410.023438 604.980469 413 601.675781 412.503906 L 598.371094 410.1875 C 592.257812 408.535156 591.101562 410.851562 582.183594 410.355469 C 577.886719 409.363281 575.90625 407.378906 578.878906 405.890625 C 574.914062 407.707031 577.0625 407.210938 571.773438 407.875 C 570.949219 407.046875 571.609375 406.882812 572.765625 406.21875 C 568.140625 405.0625 569.957031 406.882812 566.488281 406.550781 C 565.332031 408.039062 564.175781 410.519531 563.019531 410.519531 L 564.339844 411.015625 C 560.707031 411.675781 556.574219 411.84375 552.28125 410.851562 L 552.445312 410.023438 L 548.480469 410.851562 L 548.316406 409.859375 L 541.871094 409.859375 L 542.699219 410.1875 C 541.210938 410.1875 536.089844 410.355469 533.28125 409.691406 L 533.445312 409.195312 C 525.515625 407.046875 518.742188 409.03125 509.160156 408.867188 L 510.484375 407.707031 C 507.34375 406.386719 509.492188 409.363281 505.691406 408.699219 L 505.527344 407.210938 C 502.058594 408.867188 501.230469 406.714844 498.917969 405.890625 L 499.910156 407.707031 L 495.613281 407.210938 C 490.824219 406.386719 492.804688 404.730469 493.46875 403.738281 L 490.164062 405.0625 L 489.503906 403.410156 C 487.023438 405.226562 487.1875 403.078125 482.894531 403.90625 C 482.5625 403.242188 483.71875 402.914062 482.234375 402.582031 L 475.128906 404.566406 L 479.425781 403.738281 L 478.765625 406.054688 C 474.304688 407.707031 472.816406 405.558594 469.679688 406.054688 L 471.824219 405.394531 C 466.703125 405.722656 466.539062 404.730469 463.566406 404.070312 C 464.390625 404.566406 465.710938 405.226562 463.730469 405.558594 C 462.242188 405.558594 462.90625 404.730469 461.582031 404.402344 C 461.253906 406.054688 457.453125 406.714844 454.148438 405.890625 C 454.148438 405.722656 454.3125 405.394531 454.480469 405.394531 C 453.652344 405.558594 453.15625 406.054688 451.671875 405.558594 L 452.660156 403.738281 L 449.851562 405.394531 C 448.035156 404.898438 445.226562 406.054688 445.394531 404.898438 L 446.550781 404.566406 L 432.339844 403.574219 L 432.175781 402.085938 C 430.6875 403.90625 424.410156 401.09375 424.742188 403.574219 C 422.097656 402.085938 414.167969 404.234375 415.820312 401.425781 C 406.402344 400.929688 401.28125 403.410156 389.882812 401.753906 C 385.917969 399.273438 374.683594 399.769531 367.414062 399.273438 C 353.042969 399.9375 343.792969 400.433594 329.089844 400.929688 C 320.332031 397.457031 307.117188 401.589844 297.699219 399.441406 L 295.054688 400.597656 C 288.777344 398.449219 279.195312 400.761719 270.273438 398.613281 C 268.128906 399.109375 266.972656 399.273438 266.476562 399.273438 C 266.804688 399.273438 267.46875 399.605469 267.632812 400.433594 C 265.152344 399.769531 260.03125 400.433594 260.363281 398.777344 L 261.023438 398.613281 C 261.355469 396.960938 253.425781 399.273438 250.617188 397.785156 L 252.101562 399.605469 L 247.3125 399.273438 L 248.632812 398.945312 C 227.816406 402.582031 218.566406 396.792969 198.90625 400.101562 C 201.550781 398.28125 195.105469 401.09375 194.777344 398.945312 C 189.820312 396.296875 185.691406 399.441406 181.558594 400.101562 C 181.558594 400.265625 181.558594 400.265625 181.230469 400.433594 L 174.125 400.101562 C 178.421875 397.457031 169.003906 402.25 172.96875 400.101562 C 154.632812 397.953125 130.511719 399.769531 109.367188 398.777344 L 110.355469 399.441406 C 104.90625 399.273438 98.296875 400.101562 94.167969 398.945312 C 90.035156 397.785156 85.246094 400.597656 83.59375 400.761719 C 79.132812 401.921875 74.835938 399.605469 76.820312 399.769531 C 71.863281 400.101562 67.402344 402.582031 60.628906 401.921875 C 59.472656 400.929688 54.683594 401.589844 50.386719 402.582031 C 45.925781 403.574219 41.960938 404.566406 41.632812 403.242188 L 41.632812 403.410156 C 39.320312 403.242188 37.171875 403.410156 35.023438 403.90625 C 33.867188 404.070312 32.875 404.402344 31.71875 404.566406 C 30.726562 404.898438 29.570312 405.226562 28.414062 405.558594 C 24.121094 406.714844 19.824219 408.371094 14.867188 409.03125 C 14.867188 409.03125 15.035156 408.867188 15.199219 408.535156 C 15.199219 408.535156 14.207031 409.363281 12.554688 410.683594 C 11.070312 412.007812 9.085938 413.660156 7.105469 415.480469 C 6.113281 416.308594 5.285156 417.300781 4.296875 418.125 C 3.46875 418.953125 2.644531 419.78125 1.984375 420.605469 C 0.824219 422.425781 0 423.417969 0 423.417969 C 0 423.417969 2.148438 424.738281 4.296875 426.0625 C 6.277344 427.386719 8.261719 428.875 8.261719 428.875 C 8.261719 428.875 8.589844 428.875 8.921875 428.875 C 9.417969 428.875 10.078125 428.875 10.738281 428.875 C 12.226562 428.875 14.371094 428.875 16.355469 429.203125 C 18.335938 429.371094 20.320312 429.535156 21.808594 429.867188 C 23.292969 430.03125 24.285156 430.195312 24.285156 430.195312 C 24.285156 430.195312 24.78125 430.03125 25.9375 429.699219 C 26.929688 429.371094 28.414062 428.875 30.234375 428.378906 C 33.867188 427.386719 38.65625 426.226562 43.613281 425.402344 C 46.09375 424.90625 48.734375 424.574219 51.046875 424.242188 C 53.527344 423.914062 55.675781 423.582031 57.65625 423.417969 C 61.621094 423.085938 64.265625 422.921875 64.265625 422.921875 C 64.265625 422.921875 66.414062 422.921875 69.550781 423.085938 C 72.691406 423.25 76.984375 423.582031 81.28125 423.914062 C 90.035156 424.574219 98.628906 425.234375 98.628906 425.234375 C 98.628906 425.234375 119.9375 425.070312 141.25 424.90625 C 162.5625 424.90625 183.875 424.738281 183.875 424.738281 L 189.984375 422.921875 C 206.671875 426.394531 228.148438 422.921875 246.15625 425.566406 L 246.484375 423.914062 C 251.605469 423.914062 251.277344 424.90625 252.433594 425.234375 C 299.683594 425.730469 348.417969 424.738281 390.875 428.046875 C 395.003906 429.203125 407.394531 429.039062 410.535156 430.195312 C 424.410156 428.542969 438.949219 429.203125 452.828125 429.867188 L 452.332031 430.03125 L 458.773438 429.867188 C 459.105469 430.03125 459.105469 430.195312 458.9375 430.363281 C 466.375 429.203125 477.773438 431.023438 486.859375 432.015625 L 486.363281 432.179688 C 538.734375 434.496094 587.632812 433.667969 639.507812 438.796875 C 651.570312 440.78125 664.621094 441.277344 678.167969 441.773438 C 684.941406 441.9375 691.878906 442.269531 698.652344 442.597656 C 702.121094 442.765625 705.589844 443.09375 709.058594 443.425781 L 714.179688 443.921875 L 716.824219 444.253906 L 721.617188 444.75 C 724.425781 445.410156 735.65625 446.402344 750.527344 447.394531 C 765.230469 448.386719 783.566406 449.542969 799.757812 450.371094 C 790.011719 440.78125 780.925781 431.851562 773.820312 424.742188 C 766.882812 417.796875 761.925781 413 760.273438 411.511719 Z M 760.273438 411.511719 " fill-opacity="1" fill-rule="nonzero"/></g><path fill="#010101" d="M 704.269531 339.082031 L 704.433594 339.246094 C 704.929688 338.917969 704.597656 338.75 704.269531 339.082031 Z M 704.269531 339.082031 " fill-opacity="1" fill-rule="nonzero"/><path fill="#010101" d="M 740.449219 424.574219 C 740.613281 424.574219 740.613281 424.574219 740.777344 424.574219 L 737.96875 423.417969 Z M 740.449219 424.574219 " fill-opacity="1" fill-rule="nonzero"/><path fill="#010101" d="M 710.546875 384.558594 C 712.363281 387.535156 712.527344 387.535156 712.527344 386.871094 C 711.703125 385.878906 711.042969 385.054688 710.546875 384.558594 Z M 710.546875 384.558594 " fill-opacity="1" fill-rule="nonzero"/><path fill="#010101" d="M 690.390625 316.261719 C 689.730469 314.773438 689.566406 315.433594 689.566406 316.59375 C 690.390625 318.082031 691.050781 319.238281 691.050781 319.238281 C 690.886719 318.246094 690.722656 317.253906 690.390625 316.261719 Z M 690.390625 316.261719 " fill-opacity="1" fill-rule="nonzero"/><path fill="#010101" d="M 685.433594 326.84375 L 684.609375 326.679688 C 685.269531 327.507812 685.433594 327.339844 685.433594 326.84375 Z M 685.433594 326.84375 " fill-opacity="1" fill-rule="nonzero"/><path fill="#010101" d="M 708.234375 497.335938 C 708.070312 497.335938 708.234375 497.5 708.234375 497.335938 Z M 708.234375 497.335938 " fill-opacity="1" fill-rule="nonzero"/><path fill="#010101" d="M 746.230469 458.640625 C 746.230469 458.640625 746.230469 458.472656 746.230469 458.640625 C 746.066406 458.308594 745.902344 458.144531 745.902344 457.8125 Z M 746.230469 458.640625 " fill-opacity="1" fill-rule="nonzero"/><path fill="#010101" d="M 754.324219 454.671875 C 754.324219 454.503906 754.160156 454.339844 754.324219 454.671875 Z M 754.324219 454.671875 " fill-opacity="1" fill-rule="nonzero"/><path fill="#010101" d="M 698.652344 510.398438 C 698.652344 510.398438 698.652344 510.234375 698.652344 510.398438 C 698.652344 510.398438 698.488281 510.398438 698.488281 510.234375 Z M 698.652344 510.398438 " fill-opacity="1" fill-rule="nonzero"/><path fill="#010101" d="M 698.320312 509.902344 C 698.652344 509.902344 698.652344 510.234375 698.652344 510.398438 C 699.148438 510.5625 699.3125 510.398438 699.3125 510.066406 C 698.980469 509.738281 698.652344 510.066406 698.320312 509.902344 Z M 698.320312 509.902344 " fill-opacity="1" fill-rule="nonzero"/><path fill="#010101" d="M 681.304688 533.382812 L 681.140625 533.21875 C 681.304688 533.21875 681.304688 533.382812 681.304688 533.382812 Z M 681.304688 533.382812 " fill-opacity="1" fill-rule="nonzero"/><path fill="#010101" d="M 684.609375 530.078125 L 683.949219 529.582031 C 684.113281 529.910156 684.445312 530.078125 684.609375 530.078125 Z M 684.609375 530.078125 " fill-opacity="1" fill-rule="nonzero"/><path fill="#010101" d="M 745.902344 457.8125 L 745.734375 457.480469 C 745.734375 457.648438 745.734375 457.648438 745.902344 457.8125 Z M 745.902344 457.8125 " fill-opacity="1" fill-rule="nonzero"/><path fill="#010101" d="M 760.933594 450.039062 C 761.097656 450.207031 761.265625 450.371094 761.265625 450.535156 Z M 760.933594 450.039062 " fill-opacity="1" fill-rule="nonzero"/><path fill="#010101" d="M 801.078125 437.636719 C 801.078125 437.636719 800.914062 437.472656 800.914062 437.308594 L 801.078125 437.804688 C 801.078125 437.804688 801.078125 437.804688 801.078125 437.636719 Z M 801.078125 437.636719 " fill-opacity="1" fill-rule="nonzero"/><path fill="#010101" d="M 771.835938 446.238281 C 771.835938 446.238281 771.835938 446.070312 771.671875 445.90625 C 771.34375 445.742188 770.847656 446.070312 770.515625 446.402344 L 771.011719 447.230469 Z M 771.835938 446.238281 " fill-opacity="1" fill-rule="nonzero"/><g clip-path="url(#8a6a5d01d1)"><path fill="#010101" d="M 794.800781 458.308594 L 792.820312 457.316406 C 795.296875 454.503906 797.773438 455.167969 799.425781 452.191406 L 799.59375 452.6875 C 800.253906 452.851562 797.941406 448.882812 805.042969 450.867188 L 805.210938 451.03125 C 805.375 450.867188 805.042969 450.535156 805.703125 450.867188 L 804.382812 450.371094 C 804.546875 449.710938 804.382812 448.71875 804.878906 448.222656 C 805.042969 448.386719 805.375 448.71875 805.539062 448.882812 L 806.695312 447.726562 L 807.851562 448.550781 C 807.851562 447.726562 806.199219 445.574219 808.183594 446.070312 C 806.695312 444.75 808.183594 444.75 807.523438 444.085938 C 807.6875 444.253906 808.015625 444.417969 808.347656 444.582031 C 808.84375 443.921875 810 442.765625 809.667969 441.605469 C 809.667969 441.605469 804.878906 439.953125 803.0625 438.796875 C 804.382812 438.628906 803.226562 438.464844 802.730469 437.96875 L 802.894531 438.464844 C 802.070312 438.464844 801.410156 437.472656 800.914062 437.308594 C 800.914062 437.308594 801.078125 437.472656 801.078125 437.636719 L 801.078125 437.472656 C 801.242188 437.636719 801.242188 437.804688 801.242188 437.804688 C 801.410156 437.96875 801.410156 438.132812 801.242188 438.300781 L 801.242188 438.132812 C 801.078125 438.464844 800.582031 438.628906 800.253906 438.628906 L 799.757812 437.804688 C 800.417969 439.621094 795.296875 437.308594 794.636719 437.636719 C 793.3125 436.976562 793.480469 438.796875 792.488281 438.796875 C 791.167969 439.292969 791.167969 437.96875 790.011719 437.636719 C 788.855469 437.636719 790.835938 438.464844 790.503906 438.796875 L 788.855469 438.300781 C 789.347656 437.804688 788.6875 437.472656 788.359375 437.308594 C 787.53125 437.636719 785.21875 436.976562 786.210938 438.796875 C 784.722656 438.628906 784.226562 437.96875 783.730469 438.300781 C 784.0625 438.464844 784.558594 438.628906 784.722656 438.960938 C 783.898438 438.464844 784.722656 439.292969 784.890625 439.292969 C 784.722656 440.449219 779.601562 438.628906 780.757812 440.449219 L 780.59375 440.117188 C 781.417969 441.605469 782.574219 442.597656 782.574219 443.757812 L 781.914062 443.425781 L 781.914062 444.253906 C 781.253906 444.085938 781.253906 443.589844 781.089844 443.425781 C 780.757812 444.582031 779.273438 444.582031 778.28125 444.914062 L 781.75 447.890625 C 780.429688 447.558594 777.949219 446.734375 778.609375 448.054688 L 777.289062 447.230469 C 774.152344 445.90625 776.960938 448.882812 775.96875 448.71875 L 774.316406 447.890625 L 774.976562 447.394531 C 773.820312 447.230469 773.160156 447.0625 772.003906 446.566406 C 772.003906 446.566406 772.167969 446.566406 772.167969 446.734375 L 772.167969 446.898438 C 772.5 447.558594 772.5 448.386719 772.003906 448.71875 C 771.175781 449.046875 771.34375 450.371094 769.195312 449.875 L 769.855469 451.363281 L 768.367188 451.199219 L 767.542969 450.207031 C 768.367188 449.710938 769.691406 448.054688 770.847656 447.230469 L 770.515625 446.734375 C 769.855469 447.230469 769.523438 448.222656 769.027344 448.386719 C 768.699219 448.386719 767.378906 447.558594 767.210938 446.566406 L 767.542969 447.890625 C 765.394531 449.542969 765.558594 449.710938 762.421875 450.207031 L 763.082031 450.535156 C 762.917969 451.199219 762.585938 451.859375 761.925781 451.03125 C 760.4375 451.859375 758.621094 452.355469 756.640625 451.695312 L 757.464844 453.015625 C 757.132812 453.183594 755.316406 451.695312 756.472656 453.511719 L 756.308594 454.503906 C 755.8125 454.671875 756.144531 455.664062 755.152344 455.332031 C 755.152344 455.332031 754.988281 455.332031 754.988281 455.332031 C 754.988281 455.332031 754.988281 455.332031 755.152344 455.496094 C 753.832031 455.664062 755.976562 456.65625 754.492188 456.65625 C 753.5 455.992188 755.316406 458.472656 754.65625 458.640625 L 752.839844 457.316406 C 751.1875 456.984375 752.34375 458.804688 751.1875 459.960938 C 750.03125 459.796875 748.542969 458.640625 747.882812 456.984375 C 748.542969 458.96875 748.542969 458.144531 748.378906 459.632812 C 747.71875 459.136719 747.71875 458.804688 747.386719 458.144531 C 746.066406 457.976562 747.386719 459.136719 746.890625 459.464844 C 747.71875 460.789062 749.203125 462.9375 749.039062 463.105469 L 749.535156 463.269531 C 749.535156 464.425781 749.203125 465.089844 748.214844 464.921875 L 747.71875 464.261719 L 747.386719 465.089844 L 746.726562 464.425781 L 746.066406 465.417969 L 746.394531 465.585938 C 746.230469 465.914062 745.734375 466.742188 745.074219 466.578125 L 744.742188 466.082031 C 742.429688 465.75 743.09375 468.230469 741.933594 469.386719 L 741.273438 468.394531 C 740.117188 467.898438 742.265625 469.882812 741.441406 469.882812 L 740.449219 468.890625 C 741.273438 470.710938 739.621094 469.058594 738.796875 468.890625 L 740.117188 470.214844 L 739.292969 470.378906 C 738.300781 470.546875 737.308594 469.058594 736.8125 468.230469 L 737.308594 469.71875 L 736.152344 468.5625 C 737.144531 470.214844 735.65625 468.5625 735.65625 469.882812 C 735.160156 469.386719 735.160156 469.058594 734.667969 469.058594 L 735.328125 471.539062 L 735.160156 470.214844 L 736.648438 472.035156 C 737.308594 473.851562 735.65625 472.53125 735.65625 473.355469 L 735.492188 472.53125 C 735.160156 473.523438 734.5 472.859375 733.675781 472.859375 C 734.171875 473.027344 734.667969 473.355469 734.667969 473.851562 C 734.5 474.183594 734.003906 473.355469 733.675781 473.355469 C 734.667969 474.515625 734.832031 475.671875 733.839844 475.507812 C 733.675781 475.339844 733.511719 475.175781 733.511719 475.011719 C 733.511719 475.339844 733.839844 475.671875 733.34375 475.507812 L 732.351562 474.019531 L 733.179688 475.671875 C 732.683594 475.507812 733.179688 476.828125 732.351562 475.835938 L 732.1875 475.507812 L 730.039062 476.996094 L 729.050781 476.003906 C 730.207031 477.65625 727.5625 476.5 729.214844 478.152344 C 727.894531 477.492188 728.386719 480.136719 726.738281 477.988281 C 725.414062 478.980469 726.40625 481.460938 724.09375 481.957031 C 721.945312 480.796875 720.953125 482.78125 719.964844 483.445312 C 718.808594 485.925781 718.144531 487.742188 716.824219 490.222656 C 713.355469 489.066406 714.839844 493.863281 712.363281 493.695312 L 713.023438 494.855469 C 710.710938 494.191406 711.371094 497.167969 708.894531 497.003906 C 709.058594 497.664062 709.058594 497.996094 709.058594 497.996094 C 709.226562 497.996094 709.390625 497.996094 710.050781 498.65625 C 709.390625 498.65625 709.226562 499.816406 708.066406 498.65625 L 708.066406 498.492188 C 706.910156 497.335938 707.738281 499.980469 706.25 499.484375 L 707.738281 500.476562 L 706.910156 500.972656 L 706.746094 500.640625 C 707.078125 505.933594 701.789062 503.453125 702.121094 508.578125 C 700.964844 506.925781 702.453125 509.738281 700.800781 508.414062 C 698.320312 507.257812 700.136719 510.066406 700.136719 511.058594 C 700.136719 511.058594 700.304688 511.226562 700.46875 511.390625 L 699.476562 512.21875 C 697.992188 509.902344 700.46875 514.367188 699.3125 512.382812 C 695.679688 513.539062 694.355469 518.171875 691.21875 520.484375 L 691.878906 520.816406 C 691.21875 521.476562 691.050781 522.964844 689.730469 522.800781 C 688.410156 522.636719 690.0625 525.117188 689.894531 525.445312 C 690.226562 526.769531 688.078125 525.941406 688.410156 525.777344 C 688.078125 526.605469 689.398438 528.753906 687.914062 529.085938 C 685.929688 527.925781 687.582031 533.054688 685.601562 531.398438 L 685.765625 531.566406 C 683.453125 531.730469 684.941406 534.707031 682.625 535.039062 C 682.625 535.039062 682.460938 534.871094 682.460938 534.707031 L 686.425781 541.984375 L 693.695312 546.449219 L 700.800781 548.433594 C 700.800781 548.433594 701.625 546.777344 702.453125 544.960938 C 703.277344 543.304688 704.269531 541.488281 704.269531 541.488281 L 710.050781 538.511719 C 710.050781 538.511719 710.546875 537.847656 711.371094 536.691406 C 712.199219 535.535156 713.355469 534.210938 714.347656 532.722656 C 715.503906 531.234375 716.492188 529.910156 717.320312 528.753906 C 718.144531 527.761719 718.808594 526.933594 718.808594 526.933594 L 718.144531 524.949219 C 722.605469 525.117188 722.109375 519.660156 726.074219 519.164062 L 724.917969 518.003906 C 725.414062 517.34375 726.074219 518.003906 726.570312 518.003906 C 731.859375 511.886719 736.152344 504.445312 742.925781 500.972656 C 744.082031 501.304688 745.238281 499.320312 746.394531 499.816406 C 746.726562 496.839844 748.542969 495.019531 750.527344 493.53125 L 750.527344 493.695312 L 751.1875 492.703125 C 751.351562 492.703125 751.515625 492.871094 751.515625 493.035156 C 751.515625 491.050781 753.996094 490.886719 755.480469 490.390625 L 755.480469 490.554688 C 762.421875 484.933594 766.882812 477.160156 775.308594 473.523438 C 777.785156 473.355469 779.4375 471.703125 780.921875 470.050781 C 782.574219 468.394531 784.226562 466.742188 786.871094 466.246094 C 787.367188 465.914062 794.46875 459.464844 794.800781 458.308594 Z M 794.800781 458.308594 " fill-opacity="1" fill-rule="nonzero"/></g><path fill="#010101" d="M 805.210938 448.71875 C 805.539062 449.214844 805.539062 449.046875 805.210938 448.71875 Z M 805.210938 448.71875 " fill-opacity="1" fill-rule="nonzero"/><path fill="#010101" d="M 777.949219 444.417969 L 777.289062 443.757812 Z M 777.949219 444.417969 " fill-opacity="1" fill-rule="nonzero"/><path fill="#010101" d="M 788.523438 436.480469 C 787.863281 436.644531 788.027344 436.8125 788.191406 436.976562 C 788.359375 436.8125 788.523438 436.644531 788.523438 436.480469 Z M 788.523438 436.480469 " fill-opacity="1" fill-rule="nonzero"/><path fill="#010101" d="M 808.511719 445.078125 C 808.84375 444.914062 808.511719 444.75 808.015625 444.417969 C 807.851562 444.582031 807.6875 444.75 807.6875 444.75 C 807.851562 444.75 808.347656 444.914062 808.511719 445.078125 Z M 808.511719 445.078125 " fill-opacity="1" fill-rule="nonzero"/><path fill="#010101" d="M 802.402344 437.804688 L 802.234375 437.308594 C 802.234375 437.472656 802.234375 437.636719 802.402344 437.804688 Z M 802.402344 437.804688 " fill-opacity="1" fill-rule="nonzero"/></svg>