<svg xmlns="http://www.w3.org/2000/svg" xmlns:xlink="http://www.w3.org/1999/xlink" width="1080" zoomAndPan="magnify" viewBox="0 0 810 809.999993" height="1080" preserveAspectRatio="xMidYMid meet" version="1.0"><defs><clipPath id="62da98bc2c"><path d="M 0 277.226562 L 810 277.226562 L 810 430.976562 L 0 430.976562 Z M 0 277.226562 " clip-rule="nonzero"/></clipPath></defs><g clip-path="url(#62da98bc2c)"><path fill="#000000" d="M 653.402344 319.96875 C 647.933594 316.941406 643.894531 315.511719 639.6875 314.585938 C 635.394531 313.660156 631.355469 311.980469 627.316406 310.214844 C 624.625 309.039062 621.847656 308.199219 619.15625 307.273438 C 617.808594 306.769531 616.378906 306.433594 614.945312 306.011719 C 604.175781 302.902344 598.203125 295 594.078125 285.246094 C 593.40625 283.566406 593.320312 281.714844 593.910156 279.867188 C 594.246094 278.6875 596.097656 277.257812 597.191406 277.34375 C 597.527344 277.429688 597.949219 277.34375 598.285156 277.429688 C 611.328125 280.707031 624.371094 284.070312 637.5 287.433594 C 639.265625 287.851562 640.949219 288.523438 642.632812 289.199219 C 649.109375 291.886719 655.757812 293.316406 662.742188 294.074219 C 668.128906 294.664062 673.429688 296.089844 678.730469 297.4375 C 684.367188 298.867188 689.921875 300.800781 695.558594 302.058594 C 702.710938 303.742188 709.613281 305.925781 716.34375 308.703125 C 719.792969 310.046875 723.160156 311.054688 726.777344 311.644531 C 732.5 312.570312 738.136719 314 743.609375 316.351562 C 747.898438 318.203125 752.527344 319.378906 757.15625 320.386719 C 766.75 322.574219 776.171875 325.347656 785.679688 327.871094 C 789.890625 328.960938 794.179688 329.972656 798.386719 331.234375 C 801.332031 332.074219 803.6875 333.671875 804.277344 337.035156 C 804.699219 339.304688 806.214844 340.816406 807.980469 342.160156 C 810 343.757812 809.832031 344.261719 807.140625 345.777344 C 805.203125 346.785156 803.4375 348.046875 801.5 349.054688 C 796.957031 351.410156 792.160156 353.34375 787.027344 353.679688 C 782.566406 353.933594 778.359375 354.941406 774.238281 356.203125 C 771.375 357.042969 768.597656 357.800781 765.65625 356.957031 C 762.625 356.117188 759.933594 357.042969 757.15625 358.050781 C 754.460938 359.058594 751.601562 359.648438 748.742188 360.152344 C 743.355469 361.160156 737.96875 361.917969 732.585938 362.757812 C 726.273438 366.121094 719.375 366.457031 712.472656 366.457031 C 711.042969 366.457031 709.445312 366.710938 708.265625 367.300781 C 703.050781 370.074219 697.242188 370.828125 691.605469 372.257812 C 685.96875 373.605469 680.582031 375.789062 674.691406 376.714844 C 669.726562 377.554688 664.847656 379.488281 660.050781 381.171875 C 652.390625 383.777344 644.820312 386.128906 636.742188 386.71875 C 633.039062 386.972656 629.671875 388.402344 626.308594 389.914062 C 622.941406 391.425781 619.574219 392.773438 615.871094 392.855469 C 612.84375 392.941406 610.234375 394.285156 607.710938 395.796875 C 602.578125 398.824219 596.769531 399.75 591.132812 401.261719 C 590.125 401.515625 588.945312 401.347656 587.9375 401.09375 C 586.503906 400.757812 585.160156 400.171875 584.484375 398.65625 C 583.8125 397.144531 584.234375 395.546875 585.242188 394.621094 C 588.1875 391.929688 591.050781 389.074219 594.5 387.054688 C 601.316406 382.9375 608.214844 379.070312 615.957031 376.460938 C 624.203125 373.6875 631.945312 369.484375 640.023438 366.039062 C 644.0625 364.355469 648.183594 362.84375 652.308594 361.496094 C 663.753906 357.800781 675.28125 354.269531 686.722656 350.652344 C 687.0625 350.570312 687.480469 349.980469 687.398438 349.894531 C 686.976562 349.308594 686.640625 348.636719 686.050781 348.382812 C 684.703125 347.878906 683.273438 347.542969 681.84375 347.375 C 678.898438 347.121094 676.039062 347.039062 673.09375 346.953125 C 670.90625 346.871094 668.632812 347.039062 666.527344 346.617188 C 656.09375 344.433594 645.492188 345.105469 634.890625 344.683594 C 626.136719 344.433594 617.472656 344.601562 608.71875 343.253906 C 601.902344 342.246094 594.921875 342.75 587.9375 342.414062 C 583.980469 342.246094 579.941406 341.742188 575.988281 341.40625 C 573.460938 341.152344 570.9375 340.902344 568.328125 340.816406 C 566.140625 340.734375 563.953125 340.648438 561.765625 340.734375 C 556.296875 340.984375 551.164062 338.546875 545.527344 339.722656 C 540.222656 340.816406 534.671875 340.480469 529.199219 340.648438 C 523.730469 340.816406 518.179688 340.3125 512.792969 341.070312 C 503.367188 342.414062 493.859375 342.160156 484.433594 342.835938 C 481.910156 343.003906 479.386719 343.507812 476.863281 343.757812 C 475.09375 343.925781 473.074219 344.433594 471.476562 344.011719 C 466.257812 342.582031 461.460938 344.011719 456.496094 345.523438 C 449.851562 347.542969 442.867188 347.878906 436.132812 349.054688 C 433.945312 349.390625 431.757812 349.222656 429.65625 349.726562 C 418.125 352.503906 406.429688 352.082031 394.816406 351.578125 C 385.644531 351.15625 376.558594 351.492188 367.808594 354.351562 C 366.796875 354.6875 365.703125 355.277344 364.695312 355.359375 C 356.617188 356.035156 349.042969 358.808594 341.46875 361.328125 C 339.449219 362.003906 337.175781 362.507812 335.074219 362.589844 C 324.132812 363.09375 313.363281 365.195312 302.59375 366.542969 C 288.121094 368.390625 273.816406 371.335938 259.59375 374.191406 C 257.070312 374.695312 254.542969 375.117188 252.019531 375.285156 C 244.027344 375.621094 236.03125 376.125 228.207031 378.144531 C 225.429688 378.902344 222.570312 379.488281 219.792969 380.328125 C 215.25 381.589844 210.789062 383.355469 206.160156 384.28125 C 192.949219 386.972656 180.074219 391.007812 167.03125 394.203125 C 165.265625 394.621094 163.496094 395.378906 161.730469 395.378906 C 155.417969 395.378906 149.53125 397.648438 143.640625 399.160156 C 137.664062 400.675781 131.773438 402.777344 125.800781 404.289062 C 121.929688 405.296875 117.972656 405.71875 114.019531 406.390625 C 108.96875 407.148438 103.835938 407.484375 98.957031 408.746094 C 91.214844 410.761719 83.472656 412.78125 75.5625 414.042969 C 67.234375 415.386719 59.40625 418.664062 51.917969 422.363281 C 44.597656 425.980469 36.773438 427.410156 29.113281 429.847656 C 25.582031 430.941406 21.960938 430.351562 18.34375 429.257812 C 12.957031 427.578125 8.246094 425.222656 4.542969 420.851562 C 1.261719 416.984375 0 412.613281 1.261719 407.652344 C 2.859375 400.84375 6.5625 395.796875 13.378906 393.359375 C 17.503906 391.847656 21.375 389.914062 25.496094 388.230469 C 35.59375 384.113281 45.777344 380.160156 56.632812 378.058594 C 65.214844 376.378906 73.542969 373.605469 82.128906 372.007812 C 97.527344 369.148438 112.671875 364.945312 127.820312 360.992188 C 131.015625 360.152344 134.214844 359.734375 137.496094 359.648438 C 141.113281 359.480469 144.734375 359.058594 148.351562 358.808594 C 158.953125 358.136719 169.21875 355.695312 179.234375 352.25 C 189.917969 348.550781 201.027344 346.535156 212.132812 344.515625 C 222.570312 342.667969 232.917969 340.648438 243.4375 339.976562 C 244.195312 339.890625 244.867188 339.890625 245.625 339.722656 C 261.867188 337.203125 278.023438 334.679688 294.261719 332.242188 C 297.460938 331.738281 300.824219 331.652344 304.109375 331.570312 C 310.671875 331.402344 317.234375 331.402344 323.714844 329.972656 C 326.574219 329.382812 329.519531 329.550781 332.464844 329.214844 C 336.421875 328.792969 340.375 328.289062 344.414062 327.785156 C 346.9375 327.535156 349.460938 327.113281 351.988281 327.027344 C 356.027344 326.859375 359.980469 326.441406 363.9375 325.601562 C 367.132812 324.925781 370.414062 324.757812 373.695312 324.675781 C 386.066406 324.171875 398.351562 323.160156 410.722656 322.152344 C 420.902344 321.3125 431 319.800781 441.097656 318.707031 C 444.71875 318.285156 448.417969 318.203125 452.039062 318.203125 C 458.601562 318.117188 465.164062 318.117188 471.730469 318.035156 C 473.917969 318.035156 476.1875 318.285156 478.292969 317.867188 C 492.09375 315.59375 505.976562 316.519531 519.777344 316.351562 C 538.371094 316.183594 556.96875 316.351562 575.566406 316.4375 C 577.417969 316.4375 579.269531 316.269531 581.035156 316.605469 C 588.945312 318.371094 597.023438 317.867188 605.015625 318.035156 C 612.339844 318.203125 619.574219 318.285156 626.894531 318.453125 C 629.421875 318.539062 632.113281 318.453125 634.46875 319.125 C 639.601562 320.472656 645.410156 320.136719 653.402344 319.96875 Z M 653.402344 319.96875 " fill-opacity="1" fill-rule="nonzero"/></g></svg>