<svg xmlns="http://www.w3.org/2000/svg" xmlns:xlink="http://www.w3.org/1999/xlink" width="1080" zoomAndPan="magnify" viewBox="0 0 810 809.999993" height="1080" preserveAspectRatio="xMidYMid meet" version="1.0"><defs><clipPath id="fa837699c1"><path d="M 225.0625 441 L 522 441 L 522 585 L 225.0625 585 Z M 225.0625 441 " clip-rule="nonzero"/></clipPath><clipPath id="62c6983b31"><path d="M 287 225 L 585.0625 225 L 585.0625 369 L 287 369 Z M 287 225 " clip-rule="nonzero"/></clipPath></defs><g clip-path="url(#fa837699c1)"><path fill="#000000" d="M 517.753906 497.019531 C 517.226562 496.332031 516.648438 495.683594 516.023438 495.078125 C 515.398438 494.476562 514.734375 493.921875 514.027344 493.417969 C 513.320312 492.914062 512.578125 492.464844 511.804688 492.070312 C 511.03125 491.675781 510.230469 491.339844 509.40625 491.066406 C 508.582031 490.789062 507.742188 490.578125 506.886719 490.425781 C 506.03125 490.277344 505.167969 490.191406 504.300781 490.167969 C 503.433594 490.144531 502.566406 490.1875 501.703125 490.296875 C 500.839844 490.402344 499.992188 490.570312 499.15625 490.804688 L 434.898438 508.523438 C 435.101562 507.441406 435.191406 506.351562 435.171875 505.25 C 435.175781 504.617188 435.148438 503.988281 435.089844 503.359375 C 435.03125 502.730469 434.941406 502.105469 434.824219 501.484375 C 434.703125 500.863281 434.554688 500.25 434.375 499.644531 C 434.191406 499.039062 433.984375 498.441406 433.746094 497.859375 C 433.507812 497.273438 433.238281 496.699219 432.945312 496.140625 C 432.648438 495.582031 432.328125 495.039062 431.980469 494.511719 C 431.632812 493.984375 431.257812 493.476562 430.859375 492.984375 C 430.460938 492.492188 430.039062 492.023438 429.59375 491.574219 C 429.148438 491.125 428.683594 490.699219 428.199219 490.292969 C 427.710938 489.890625 427.207031 489.511719 426.683594 489.15625 C 426.160156 488.804688 425.617188 488.476562 425.0625 488.175781 C 424.507812 487.875 423.9375 487.601562 423.355469 487.355469 C 422.769531 487.109375 422.175781 486.894531 421.574219 486.707031 C 420.96875 486.519531 420.359375 486.363281 419.738281 486.238281 C 419.117188 486.109375 418.496094 486.011719 417.863281 485.949219 C 417.234375 485.882812 416.605469 485.847656 415.972656 485.84375 L 375.390625 485.84375 C 371.164062 481.695312 366.585938 477.96875 361.660156 474.671875 C 356.738281 471.371094 351.550781 468.558594 346.101562 466.226562 C 340.652344 463.894531 335.035156 462.089844 329.25 460.804688 C 323.460938 459.519531 317.605469 458.78125 311.683594 458.589844 L 287.738281 458.589844 L 287.738281 455.535156 C 287.722656 454.605469 287.617188 453.6875 287.425781 452.78125 C 287.230469 451.871094 286.953125 450.992188 286.585938 450.136719 C 286.222656 449.285156 285.777344 448.472656 285.253906 447.707031 C 284.730469 446.9375 284.136719 446.230469 283.476562 445.578125 C 282.8125 444.925781 282.09375 444.34375 281.316406 443.832031 C 280.542969 443.320312 279.726562 442.890625 278.863281 442.539062 C 278.003906 442.1875 277.117188 441.921875 276.207031 441.742188 C 275.296875 441.5625 274.375 441.472656 273.445312 441.472656 L 239.355469 441.472656 C 238.417969 441.472656 237.488281 441.5625 236.566406 441.746094 C 235.648438 441.929688 234.753906 442.199219 233.886719 442.558594 C 233.019531 442.917969 232.195312 443.359375 231.414062 443.878906 C 230.636719 444.398438 229.914062 444.992188 229.25 445.65625 C 228.585938 446.316406 227.992188 447.039062 227.472656 447.820312 C 226.949219 448.597656 226.511719 449.421875 226.152344 450.289062 C 225.792969 451.15625 225.523438 452.046875 225.339844 452.96875 C 225.15625 453.886719 225.0625 454.816406 225.0625 455.753906 L 225.0625 558.5625 C 225.0625 559.5 225.15625 560.429688 225.339844 561.351562 C 225.523438 562.269531 225.792969 563.164062 226.152344 564.027344 C 226.511719 564.894531 226.949219 565.71875 227.472656 566.5 C 227.992188 567.277344 228.585938 568 229.25 568.664062 C 229.914062 569.324219 230.636719 569.917969 231.414062 570.4375 C 232.195312 570.960938 233.019531 571.398438 233.886719 571.757812 C 234.753906 572.117188 235.648438 572.386719 236.566406 572.570312 C 237.488281 572.753906 238.417969 572.84375 239.355469 572.84375 L 273.445312 572.84375 C 274.382812 572.84375 275.3125 572.753906 276.234375 572.570312 C 277.152344 572.386719 278.046875 572.117188 278.914062 571.757812 C 279.78125 571.398438 280.605469 570.960938 281.386719 570.4375 C 282.164062 569.917969 282.886719 569.324219 283.550781 568.664062 C 284.214844 568 284.808594 567.277344 285.328125 566.5 C 285.847656 565.71875 286.289062 564.894531 286.648438 564.027344 C 287.007812 563.164062 287.277344 562.269531 287.460938 561.351562 C 287.644531 560.429688 287.738281 559.5 287.738281 558.5625 L 287.738281 557.582031 L 355.972656 581.242188 C 360.210938 582.695312 364.546875 583.710938 368.992188 584.289062 C 373.433594 584.863281 377.886719 584.988281 382.355469 584.660156 C 386.824219 584.332031 391.210938 583.558594 395.523438 582.339844 C 399.832031 581.121094 403.976562 579.484375 407.953125 577.425781 L 512.082031 523.347656 C 512.652344 523.050781 513.199219 522.726562 513.734375 522.371094 C 514.265625 522.015625 514.777344 521.628906 515.269531 521.21875 C 515.761719 520.804688 516.226562 520.367188 516.671875 519.90625 C 517.113281 519.441406 517.53125 518.957031 517.917969 518.449219 C 518.308594 517.941406 518.671875 517.414062 519.003906 516.863281 C 519.335938 516.316406 519.636719 515.753906 519.90625 515.171875 C 520.179688 514.589844 520.417969 514 520.621094 513.390625 C 520.828125 512.785156 521 512.167969 521.140625 511.542969 C 521.277344 510.917969 521.382812 510.285156 521.453125 509.648438 C 521.523438 509.011719 521.558594 508.375 521.558594 507.734375 C 521.558594 507.09375 521.523438 506.453125 521.453125 505.816406 C 521.382812 505.179688 521.277344 504.550781 521.140625 503.925781 C 521 503.300781 520.828125 502.683594 520.621094 502.078125 C 520.417969 501.46875 520.179688 500.875 519.90625 500.296875 C 519.636719 499.714844 519.335938 499.152344 519.003906 498.601562 C 518.667969 498.054688 518.308594 497.527344 517.917969 497.019531 Z M 510.335938 509.175781 C 510.132812 510.140625 509.726562 511.015625 509.125 511.800781 C 508.523438 512.582031 507.78125 513.199219 506.898438 513.644531 L 402.773438 567.722656 C 399.433594 569.453125 395.957031 570.832031 392.339844 571.859375 C 388.722656 572.882812 385.035156 573.535156 381.285156 573.8125 C 377.535156 574.085938 373.792969 573.984375 370.066406 573.5 C 366.335938 573.015625 362.691406 572.160156 359.136719 570.9375 L 287.738281 546.136719 L 287.738281 469.816406 L 311.683594 469.816406 C 337.210938 469.816406 357.226562 483.71875 369.5 495.382812 C 370.558594 496.375 371.8125 496.867188 373.265625 496.855469 L 415.972656 496.855469 C 416.441406 496.859375 416.90625 496.902344 417.367188 496.984375 C 417.832031 497.066406 418.28125 497.1875 418.722656 497.34375 C 419.164062 497.5 419.589844 497.695312 420 497.921875 C 420.410156 498.152344 420.796875 498.414062 421.160156 498.707031 C 421.527344 499 421.867188 499.324219 422.175781 499.671875 C 422.488281 500.023438 422.769531 500.394531 423.019531 500.792969 C 423.265625 501.191406 423.480469 501.605469 423.660156 502.039062 C 423.839844 502.472656 423.980469 502.917969 424.085938 503.375 C 424.191406 503.828125 424.257812 504.292969 424.285156 504.761719 C 424.3125 505.226562 424.300781 505.695312 424.25 506.160156 C 424.199219 506.625 424.109375 507.085938 423.984375 507.535156 C 423.855469 507.984375 423.691406 508.421875 423.488281 508.847656 C 423.289062 509.269531 423.054688 509.675781 422.785156 510.058594 C 422.515625 510.441406 422.21875 510.800781 421.890625 511.136719 C 421.5625 511.46875 421.207031 511.773438 420.828125 512.050781 C 420.449219 512.324219 420.046875 512.566406 419.628906 512.773438 L 419.082031 512.773438 C 418.082031 513.167969 417.046875 513.371094 415.972656 513.375 L 351.71875 513.375 C 351.359375 513.375 351.003906 513.40625 350.65625 513.476562 C 350.304688 513.546875 349.960938 513.652344 349.632812 513.789062 C 349.300781 513.925781 348.984375 514.09375 348.6875 514.292969 C 348.390625 514.492188 348.113281 514.714844 347.863281 514.96875 C 347.609375 515.222656 347.382812 515.5 347.183594 515.796875 C 346.984375 516.09375 346.816406 516.40625 346.679688 516.738281 C 346.542969 517.070312 346.4375 517.410156 346.367188 517.761719 C 346.300781 518.113281 346.265625 518.464844 346.265625 518.824219 C 346.265625 519.183594 346.300781 519.535156 346.367188 519.886719 C 346.4375 520.238281 346.542969 520.578125 346.679688 520.910156 C 346.816406 521.242188 346.984375 521.554688 347.183594 521.851562 C 347.382812 522.148438 347.609375 522.425781 347.863281 522.679688 C 348.113281 522.933594 348.390625 523.15625 348.6875 523.355469 C 348.984375 523.554688 349.300781 523.722656 349.632812 523.859375 C 349.960938 523.996094 350.304688 524.101562 350.65625 524.171875 C 351.003906 524.242188 351.359375 524.277344 351.71875 524.277344 L 415.972656 524.277344 C 418.585938 524.277344 421.09375 523.765625 423.5 522.75 L 502.101562 500.945312 C 502.738281 500.765625 503.386719 500.683594 504.046875 500.699219 C 504.707031 500.714844 505.351562 500.828125 505.980469 501.035156 C 506.605469 501.242188 507.1875 501.539062 507.726562 501.925781 C 508.265625 502.308594 508.734375 502.761719 509.136719 503.289062 C 509.808594 504.113281 510.246094 505.042969 510.460938 506.085938 C 510.671875 507.125 510.632812 508.15625 510.335938 509.175781 Z M 510.335938 509.175781 " fill-opacity="1" fill-rule="nonzero"/></g><g clip-path="url(#62c6983b31)"><path fill="#000000" d="M 570.773438 237.050781 L 536.683594 237.050781 C 535.742188 237.050781 534.816406 237.144531 533.894531 237.328125 C 532.972656 237.507812 532.082031 237.78125 531.214844 238.140625 C 530.347656 238.5 529.523438 238.9375 528.742188 239.460938 C 527.960938 239.980469 527.242188 240.570312 526.578125 241.234375 C 525.914062 241.898438 525.320312 242.621094 524.800781 243.398438 C 524.277344 244.179688 523.839844 245.003906 523.480469 245.867188 C 523.121094 246.734375 522.847656 247.628906 522.664062 248.546875 C 522.484375 249.46875 522.390625 250.394531 522.390625 251.335938 L 522.390625 252.316406 L 454.15625 228.65625 C 449.917969 227.203125 445.578125 226.191406 441.136719 225.617188 C 436.695312 225.042969 432.238281 224.921875 427.773438 225.25 C 423.304688 225.578125 418.917969 226.347656 414.605469 227.566406 C 410.296875 228.78125 406.152344 230.417969 402.171875 232.472656 L 298.210938 286.550781 C 297.675781 286.757812 297.148438 286.992188 296.636719 287.253906 C 296.125 287.515625 295.625 287.800781 295.140625 288.109375 C 294.65625 288.417969 294.1875 288.75 293.738281 289.105469 C 293.285156 289.460938 292.851562 289.839844 292.4375 290.234375 C 292.023438 290.632812 291.628906 291.050781 291.253906 291.488281 C 290.878906 291.925781 290.527344 292.378906 290.199219 292.851562 C 289.871094 293.320312 289.566406 293.808594 289.285156 294.308594 C 289.003906 294.808594 288.746094 295.324219 288.515625 295.851562 C 288.285156 296.375 288.078125 296.914062 287.902344 297.457031 C 287.722656 298.003906 287.574219 298.558594 287.449219 299.121094 C 287.324219 299.679688 287.230469 300.246094 287.160156 300.816406 C 287.09375 301.386719 287.050781 301.960938 287.039062 302.535156 C 287.027344 303.109375 287.046875 303.683594 287.089844 304.257812 C 287.132812 304.828125 287.207031 305.398438 287.308594 305.964844 C 287.40625 306.53125 287.535156 307.089844 287.691406 307.644531 C 287.847656 308.195312 288.027344 308.742188 288.238281 309.277344 C 288.445312 309.8125 288.679688 310.335938 288.941406 310.847656 C 289.203125 311.359375 289.488281 311.859375 289.796875 312.34375 C 290.105469 312.828125 290.4375 313.296875 290.792969 313.746094 C 291.148438 314.199219 291.527344 314.632812 291.921875 315.046875 C 292.320312 315.460938 292.738281 315.855469 293.175781 316.230469 C 293.613281 316.605469 294.066406 316.957031 294.539062 317.285156 C 295.007812 317.613281 295.496094 317.917969 295.996094 318.203125 C 296.496094 318.484375 297.011719 318.738281 297.539062 318.96875 C 298.066406 319.203125 298.601562 319.40625 299.148438 319.585938 C 299.695312 319.761719 300.25 319.914062 300.808594 320.039062 C 301.371094 320.164062 301.9375 320.257812 302.507812 320.328125 C 303.078125 320.394531 303.652344 320.4375 304.226562 320.449219 C 304.800781 320.460938 305.375 320.445312 305.949219 320.398438 C 306.523438 320.355469 307.09375 320.285156 307.660156 320.183594 C 308.226562 320.082031 308.785156 319.957031 309.339844 319.800781 C 309.890625 319.644531 310.4375 319.464844 310.972656 319.257812 L 375.226562 301.375 C 375.054688 302.460938 374.964844 303.550781 374.953125 304.648438 C 374.953125 305.277344 374.980469 305.910156 375.039062 306.539062 C 375.09375 307.167969 375.183594 307.792969 375.304688 308.414062 C 375.425781 309.035156 375.574219 309.648438 375.753906 310.253906 C 375.933594 310.859375 376.144531 311.453125 376.382812 312.039062 C 376.621094 312.625 376.886719 313.199219 377.183594 313.757812 C 377.476562 314.316406 377.800781 314.859375 378.148438 315.386719 C 378.496094 315.914062 378.871094 316.421875 379.269531 316.914062 C 379.667969 317.40625 380.089844 317.875 380.53125 318.324219 C 380.976562 318.773438 381.445312 319.199219 381.929688 319.605469 C 382.417969 320.007812 382.921875 320.386719 383.445312 320.742188 C 383.96875 321.09375 384.507812 321.421875 385.066406 321.722656 C 385.621094 322.023438 386.191406 322.296875 386.773438 322.542969 C 387.355469 322.789062 387.949219 323.003906 388.554688 323.191406 C 389.160156 323.378906 389.769531 323.535156 390.390625 323.660156 C 391.007812 323.789062 391.632812 323.882812 392.261719 323.949219 C 392.890625 324.015625 393.523438 324.050781 394.15625 324.054688 L 434.683594 324.054688 C 438.910156 328.203125 443.488281 331.929688 448.410156 335.226562 C 453.335938 338.523438 458.523438 341.339844 463.972656 343.671875 C 469.421875 346 475.039062 347.808594 480.824219 349.09375 C 486.613281 350.378906 492.46875 351.117188 498.390625 351.308594 L 522.335938 351.308594 L 522.335938 354.363281 C 522.335938 355.300781 522.429688 356.226562 522.613281 357.148438 C 522.792969 358.066406 523.066406 358.960938 523.425781 359.828125 C 523.785156 360.695312 524.222656 361.515625 524.746094 362.296875 C 525.265625 363.078125 525.859375 363.796875 526.523438 364.460938 C 527.1875 365.125 527.90625 365.714844 528.6875 366.238281 C 529.46875 366.757812 530.292969 367.199219 531.160156 367.558594 C 532.027344 367.914062 532.917969 368.1875 533.839844 368.371094 C 534.761719 368.550781 535.6875 368.644531 536.628906 368.644531 L 570.71875 368.644531 C 571.667969 368.648438 572.609375 368.558594 573.542969 368.375 C 574.472656 368.191406 575.378906 367.917969 576.253906 367.550781 C 577.132812 367.1875 577.964844 366.742188 578.753906 366.210938 C 579.542969 365.679688 580.269531 365.078125 580.9375 364.402344 C 581.605469 363.726562 582.199219 362.992188 582.722656 362.199219 C 583.242188 361.40625 583.679688 360.570312 584.035156 359.6875 C 584.390625 358.808594 584.652344 357.902344 584.824219 356.96875 C 585 356.035156 585.078125 355.09375 585.0625 354.144531 L 585.0625 251.335938 C 585.0625 250.394531 584.972656 249.46875 584.789062 248.546875 C 584.605469 247.628906 584.335938 246.734375 583.976562 245.867188 C 583.617188 245.003906 583.175781 244.179688 582.65625 243.398438 C 582.132812 242.621094 581.542969 241.898438 580.878906 241.234375 C 580.214844 240.570312 579.492188 239.980469 578.710938 239.460938 C 577.933594 238.9375 577.109375 238.5 576.242188 238.140625 C 575.375 237.78125 574.480469 237.507812 573.5625 237.328125 C 572.640625 237.144531 571.710938 237.050781 570.773438 237.050781 Z M 522.390625 340.1875 L 498.445312 340.1875 C 472.917969 340.1875 452.898438 326.289062 440.628906 314.621094 C 439.570312 313.632812 438.3125 313.140625 436.863281 313.152344 L 394.15625 313.152344 C 393.605469 313.148438 393.0625 313.089844 392.523438 312.980469 C 391.984375 312.871094 391.464844 312.707031 390.957031 312.496094 C 390.449219 312.285156 389.96875 312.023438 389.515625 311.71875 C 389.058594 311.410156 388.636719 311.0625 388.25 310.671875 C 387.863281 310.285156 387.519531 309.859375 387.214844 309.402344 C 386.910156 308.945312 386.652344 308.464844 386.445312 307.957031 C 386.234375 307.449219 386.078125 306.925781 385.96875 306.386719 C 385.863281 305.847656 385.808594 305.304688 385.808594 304.757812 C 385.804688 303.96875 385.914062 303.195312 386.128906 302.4375 C 386.347656 301.683594 386.667969 300.96875 387.085938 300.304688 C 387.507812 299.636719 388.011719 299.042969 388.601562 298.523438 C 389.191406 298 389.84375 297.570312 390.554688 297.234375 C 390.699219 297.261719 390.847656 297.261719 390.992188 297.234375 C 392.007812 296.839844 393.0625 296.636719 394.15625 296.632812 L 458.410156 296.632812 C 458.769531 296.632812 459.121094 296.597656 459.472656 296.527344 C 459.824219 296.460938 460.164062 296.355469 460.496094 296.21875 C 460.828125 296.082031 461.140625 295.914062 461.441406 295.714844 C 461.738281 295.515625 462.011719 295.289062 462.265625 295.035156 C 462.519531 294.785156 462.746094 294.507812 462.945312 294.210938 C 463.144531 293.914062 463.3125 293.597656 463.449219 293.269531 C 463.585938 292.9375 463.6875 292.597656 463.757812 292.246094 C 463.828125 291.894531 463.863281 291.539062 463.863281 291.183594 C 463.863281 290.824219 463.828125 290.46875 463.757812 290.117188 C 463.6875 289.769531 463.585938 289.425781 463.449219 289.097656 C 463.3125 288.765625 463.144531 288.453125 462.945312 288.152344 C 462.746094 287.855469 462.519531 287.582031 462.265625 287.328125 C 462.011719 287.074219 461.738281 286.847656 461.441406 286.648438 C 461.140625 286.449219 460.828125 286.28125 460.496094 286.144531 C 460.164062 286.007812 459.824219 285.90625 459.472656 285.835938 C 459.121094 285.765625 458.769531 285.730469 458.410156 285.730469 L 394.15625 285.730469 C 391.558594 285.730469 389.070312 286.238281 386.683594 287.257812 L 308.027344 309.0625 C 307.390625 309.242188 306.742188 309.324219 306.082031 309.308594 C 305.421875 309.292969 304.777344 309.179688 304.148438 308.972656 C 303.523438 308.761719 302.9375 308.464844 302.402344 308.082031 C 301.863281 307.699219 301.394531 307.242188 300.992188 306.71875 C 300.691406 306.332031 300.4375 305.921875 300.230469 305.480469 C 300.023438 305.039062 299.863281 304.582031 299.757812 304.109375 C 299.648438 303.632812 299.59375 303.152344 299.59375 302.664062 C 299.589844 302.175781 299.644531 301.695312 299.746094 301.21875 C 299.851562 300.746094 300.003906 300.285156 300.210938 299.84375 C 300.414062 299.402344 300.664062 298.988281 300.960938 298.601562 C 301.257812 298.214844 301.59375 297.863281 301.964844 297.550781 C 302.339844 297.238281 302.742188 296.96875 303.171875 296.742188 L 407.355469 242.175781 C 410.691406 240.4375 414.167969 239.054688 417.785156 238.027344 C 421.402344 236.996094 425.089844 236.34375 428.839844 236.066406 C 432.59375 235.792969 436.332031 235.894531 440.0625 236.382812 C 443.792969 236.871094 447.4375 237.730469 450.992188 238.960938 L 522.390625 263.761719 Z M 522.390625 340.1875 " fill-opacity="1" fill-rule="nonzero"/></g><path fill="#000000" d="M 405.0625 343.785156 C 403.058594 343.785156 401.058594 343.882812 399.066406 344.082031 C 397.070312 344.277344 395.089844 344.570312 393.125 344.960938 C 391.160156 345.351562 389.214844 345.839844 387.296875 346.421875 C 385.378906 347 383.496094 347.675781 381.644531 348.441406 C 379.792969 349.207031 377.980469 350.0625 376.214844 351.007812 C 374.445312 351.953125 372.730469 352.980469 371.0625 354.09375 C 369.398438 355.207031 367.789062 356.398438 366.238281 357.667969 C 364.691406 358.941406 363.207031 360.285156 361.789062 361.699219 C 360.371094 363.117188 359.027344 364.597656 357.753906 366.148438 C 356.484375 367.695312 355.292969 369.304688 354.179688 370.96875 C 353.066406 372.632812 352.035156 374.351562 351.089844 376.117188 C 350.144531 377.882812 349.289062 379.691406 348.523438 381.542969 C 347.753906 383.394531 347.082031 385.277344 346.5 387.195312 C 345.917969 389.109375 345.429688 391.050781 345.039062 393.015625 C 344.648438 394.980469 344.355469 396.960938 344.160156 398.953125 C 343.960938 400.949219 343.863281 402.945312 343.863281 404.949219 C 343.863281 406.953125 343.960938 408.949219 344.160156 410.945312 C 344.355469 412.9375 344.648438 414.917969 345.039062 416.882812 C 345.429688 418.84375 345.917969 420.785156 346.5 422.703125 C 347.082031 424.621094 347.753906 426.503906 348.523438 428.355469 C 349.289062 430.207031 350.144531 432.015625 351.089844 433.78125 C 352.035156 435.546875 353.066406 437.261719 354.179688 438.929688 C 355.292969 440.59375 356.484375 442.203125 357.753906 443.75 C 359.027344 445.296875 360.371094 446.78125 361.789062 448.195312 C 363.207031 449.613281 364.691406 450.957031 366.238281 452.226562 C 367.789062 453.5 369.398438 454.691406 371.0625 455.804688 C 372.730469 456.917969 374.445312 457.945312 376.214844 458.890625 C 377.980469 459.832031 379.792969 460.6875 381.644531 461.457031 C 383.496094 462.222656 385.378906 462.894531 387.296875 463.476562 C 389.214844 464.058594 391.160156 464.546875 393.125 464.9375 C 395.089844 465.328125 397.070312 465.621094 399.066406 465.816406 C 401.058594 466.011719 403.058594 466.109375 405.0625 466.109375 C 407.070312 466.109375 409.066406 466.011719 411.0625 465.816406 C 413.058594 465.621094 415.039062 465.328125 417.003906 464.9375 C 418.96875 464.546875 420.910156 464.058594 422.828125 463.476562 C 424.746094 462.894531 426.632812 462.222656 428.484375 461.457031 C 430.335938 460.6875 432.144531 459.832031 433.914062 458.890625 C 435.679688 457.945312 437.398438 456.917969 439.066406 455.804688 C 440.730469 454.691406 442.339844 453.5 443.890625 452.226562 C 445.4375 450.957031 446.921875 449.613281 448.339844 448.195312 C 449.757812 446.78125 451.101562 445.296875 452.371094 443.75 C 453.644531 442.203125 454.835938 440.59375 455.949219 438.929688 C 457.0625 437.261719 458.09375 435.546875 459.039062 433.78125 C 459.984375 432.015625 460.839844 430.207031 461.605469 428.355469 C 462.371094 426.503906 463.046875 424.621094 463.628906 422.703125 C 464.210938 420.785156 464.695312 418.84375 465.089844 416.882812 C 465.480469 414.917969 465.773438 412.9375 465.96875 410.945312 C 466.164062 408.949219 466.265625 406.953125 466.265625 404.949219 C 466.261719 402.945312 466.164062 400.949219 465.964844 398.957031 C 465.765625 396.960938 465.472656 394.984375 465.078125 393.019531 C 464.6875 391.054688 464.199219 389.117188 463.617188 387.199219 C 463.035156 385.285156 462.359375 383.402344 461.589844 381.550781 C 460.824219 379.703125 459.964844 377.894531 459.023438 376.128906 C 458.078125 374.363281 457.046875 372.648438 455.933594 370.980469 C 454.820312 369.316406 453.628906 367.710938 452.355469 366.164062 C 451.085938 364.613281 449.738281 363.132812 448.324219 361.714844 C 446.90625 360.300781 445.421875 358.957031 443.875 357.6875 C 442.324219 356.414062 440.71875 355.222656 439.050781 354.109375 C 437.386719 352.996094 435.667969 351.96875 433.902344 351.023438 C 432.136719 350.078125 430.328125 349.222656 428.476562 348.457031 C 426.625 347.691406 424.742188 347.015625 422.824219 346.433594 C 420.90625 345.851562 418.964844 345.363281 417 344.972656 C 415.035156 344.578125 413.054688 344.285156 411.0625 344.085938 C 409.066406 343.886719 407.066406 343.789062 405.0625 343.785156 Z M 405.0625 399.496094 C 406.101562 399.5 407.128906 399.589844 408.148438 399.773438 C 409.167969 399.957031 410.164062 400.226562 411.136719 400.585938 C 412.109375 400.945312 413.039062 401.382812 413.933594 401.910156 C 414.828125 402.433594 415.667969 403.03125 416.457031 403.703125 C 417.246094 404.375 417.96875 405.113281 418.625 405.910156 C 419.28125 406.710938 419.863281 407.5625 420.371094 408.46875 C 420.878906 409.371094 421.300781 410.3125 421.640625 411.289062 C 421.980469 412.265625 422.234375 413.269531 422.394531 414.289062 C 422.558594 415.3125 422.628906 416.339844 422.613281 417.378906 C 422.59375 418.414062 422.480469 419.4375 422.28125 420.453125 C 422.082031 421.46875 421.792969 422.460938 421.414062 423.425781 C 421.039062 424.390625 420.582031 425.3125 420.042969 426.199219 C 419.5 427.082031 418.886719 427.910156 418.199219 428.6875 C 417.515625 429.460938 416.765625 430.171875 415.953125 430.8125 C 415.140625 431.457031 414.277344 432.023438 413.363281 432.511719 C 412.453125 433.003906 411.503906 433.410156 410.519531 433.730469 L 410.519531 438.691406 C 410.519531 439.050781 410.484375 439.402344 410.414062 439.753906 C 410.34375 440.105469 410.242188 440.445312 410.101562 440.777344 C 409.964844 441.109375 409.796875 441.421875 409.597656 441.71875 C 409.398438 442.019531 409.175781 442.292969 408.921875 442.546875 C 408.667969 442.800781 408.390625 443.023438 408.09375 443.222656 C 407.796875 443.421875 407.480469 443.589844 407.152344 443.726562 C 406.820312 443.863281 406.480469 443.96875 406.128906 444.039062 C 405.777344 444.109375 405.421875 444.144531 405.0625 444.144531 C 404.707031 444.144531 404.351562 444.109375 404 444.039062 C 403.648438 443.96875 403.308594 443.863281 402.976562 443.726562 C 402.644531 443.589844 402.332031 443.421875 402.035156 443.222656 C 401.734375 443.023438 401.460938 442.800781 401.207031 442.546875 C 400.953125 442.292969 400.726562 442.019531 400.527344 441.71875 C 400.328125 441.421875 400.160156 441.109375 400.023438 440.777344 C 399.886719 440.445312 399.785156 440.105469 399.714844 439.753906 C 399.644531 439.402344 399.609375 439.050781 399.609375 438.691406 L 399.609375 433.730469 C 398.730469 433.449219 397.882812 433.105469 397.058594 432.691406 C 396.234375 432.277344 395.449219 431.800781 394.703125 431.261719 C 393.953125 430.726562 393.253906 430.132812 392.597656 429.484375 C 391.945312 428.839844 391.34375 428.144531 390.796875 427.402344 C 390.253906 426.660156 389.769531 425.878906 389.347656 425.0625 C 388.925781 424.242188 388.570312 423.398438 388.28125 422.523438 C 387.988281 421.648438 387.769531 420.757812 387.621094 419.847656 C 387.472656 418.941406 387.394531 418.027344 387.390625 417.105469 C 387.390625 416.746094 387.425781 416.390625 387.496094 416.042969 C 387.566406 415.691406 387.667969 415.347656 387.804688 415.019531 C 387.945312 414.6875 388.113281 414.375 388.308594 414.078125 C 388.507812 413.777344 388.734375 413.503906 388.988281 413.25 C 389.242188 412.996094 389.519531 412.769531 389.816406 412.574219 C 390.113281 412.375 390.425781 412.207031 390.757812 412.070312 C 391.089844 411.933594 391.429688 411.828125 391.78125 411.757812 C 392.132812 411.6875 392.488281 411.652344 392.847656 411.652344 C 393.203125 411.652344 393.558594 411.6875 393.910156 411.757812 C 394.261719 411.828125 394.601562 411.933594 394.933594 412.070312 C 395.265625 412.207031 395.578125 412.375 395.875 412.574219 C 396.175781 412.769531 396.449219 412.996094 396.703125 413.25 C 396.957031 413.503906 397.183594 413.777344 397.382812 414.078125 C 397.582031 414.375 397.75 414.6875 397.886719 415.019531 C 398.023438 415.347656 398.125 415.691406 398.195312 416.042969 C 398.265625 416.390625 398.300781 416.746094 398.300781 417.105469 C 398.308594 417.542969 398.355469 417.980469 398.449219 418.410156 C 398.539062 418.835938 398.671875 419.253906 398.847656 419.660156 C 399.019531 420.0625 399.230469 420.445312 399.476562 420.808594 C 399.726562 421.171875 400.007812 421.507812 400.320312 421.8125 C 400.632812 422.121094 400.972656 422.398438 401.339844 422.640625 C 401.707031 422.882812 402.09375 423.085938 402.5 423.25 C 402.90625 423.417969 403.328125 423.542969 403.757812 423.628906 C 404.1875 423.714844 404.625 423.753906 405.0625 423.753906 C 405.476562 423.71875 405.882812 423.644531 406.285156 423.53125 C 406.683594 423.417969 407.070312 423.269531 407.441406 423.085938 C 407.8125 422.902344 408.164062 422.683594 408.496094 422.433594 C 408.828125 422.183594 409.132812 421.90625 409.414062 421.601562 C 409.691406 421.292969 409.941406 420.964844 410.160156 420.613281 C 410.378906 420.257812 410.5625 419.890625 410.714844 419.503906 C 410.863281 419.117188 410.976562 418.71875 411.054688 418.3125 C 411.128906 417.902344 411.167969 417.492188 411.167969 417.078125 C 411.167969 416.664062 411.128906 416.25 411.054688 415.84375 C 410.976562 415.4375 410.863281 415.039062 410.714844 414.652344 C 410.5625 414.265625 410.378906 413.894531 410.160156 413.542969 C 409.941406 413.191406 409.691406 412.863281 409.414062 412.554688 C 409.132812 412.25 408.828125 411.972656 408.496094 411.722656 C 408.164062 411.472656 407.8125 411.253906 407.441406 411.070312 C 407.070312 410.886719 406.683594 410.738281 406.285156 410.625 C 405.882812 410.511719 405.476562 410.4375 405.0625 410.398438 C 404.023438 410.410156 402.992188 410.328125 401.964844 410.152344 C 400.941406 409.980469 399.9375 409.714844 398.957031 409.363281 C 397.980469 409.011719 397.039062 408.574219 396.140625 408.054688 C 395.238281 407.535156 394.390625 406.941406 393.597656 406.269531 C 392.800781 405.597656 392.074219 404.863281 391.410156 404.0625 C 390.746094 403.261719 390.160156 402.40625 389.648438 401.5 C 389.136719 400.597656 388.710938 399.652344 388.367188 398.671875 C 388.023438 397.6875 387.769531 396.683594 387.605469 395.660156 C 387.441406 394.632812 387.371094 393.597656 387.390625 392.558594 C 387.410156 391.519531 387.523438 390.492188 387.726562 389.472656 C 387.929688 388.453125 388.222656 387.457031 388.605469 386.492188 C 388.988281 385.523438 389.449219 384.597656 389.996094 383.710938 C 390.542969 382.828125 391.164062 382 391.859375 381.222656 C 392.550781 380.449219 393.308594 379.742188 394.128906 379.105469 C 394.949219 378.464844 395.820312 377.902344 396.742188 377.417969 C 397.660156 376.933594 398.617188 376.535156 399.609375 376.222656 L 399.609375 371.261719 C 399.609375 370.902344 399.644531 370.546875 399.714844 370.195312 C 399.785156 369.847656 399.886719 369.503906 400.023438 369.175781 C 400.160156 368.84375 400.328125 368.53125 400.527344 368.230469 C 400.726562 367.933594 400.953125 367.660156 401.207031 367.40625 C 401.460938 367.152344 401.734375 366.925781 402.035156 366.726562 C 402.332031 366.527344 402.644531 366.359375 402.976562 366.222656 C 403.308594 366.085938 403.648438 365.984375 404 365.914062 C 404.351562 365.84375 404.707031 365.808594 405.0625 365.808594 C 405.421875 365.808594 405.777344 365.84375 406.128906 365.914062 C 406.480469 365.984375 406.820312 366.085938 407.152344 366.222656 C 407.480469 366.359375 407.796875 366.527344 408.09375 366.726562 C 408.390625 366.925781 408.667969 367.152344 408.921875 367.40625 C 409.175781 367.660156 409.398438 367.933594 409.597656 368.230469 C 409.796875 368.53125 409.964844 368.84375 410.101562 369.175781 C 410.242188 369.503906 410.34375 369.847656 410.414062 370.195312 C 410.484375 370.546875 410.519531 370.902344 410.519531 371.261719 L 410.519531 376.222656 C 411.386719 376.511719 412.230469 376.863281 413.042969 377.285156 C 413.855469 377.703125 414.632812 378.183594 415.371094 378.726562 C 416.109375 379.265625 416.800781 379.863281 417.445312 380.511719 C 418.09375 381.160156 418.683594 381.855469 419.222656 382.597656 C 419.757812 383.335938 420.234375 384.117188 420.652344 384.929688 C 421.066406 385.746094 421.417969 386.589844 421.703125 387.460938 C 421.988281 388.328125 422.203125 389.214844 422.347656 390.121094 C 422.492188 391.023438 422.570312 391.933594 422.574219 392.847656 C 422.574219 393.207031 422.539062 393.558594 422.46875 393.910156 C 422.398438 394.261719 422.296875 394.601562 422.15625 394.933594 C 422.019531 395.265625 421.851562 395.578125 421.652344 395.875 C 421.453125 396.171875 421.230469 396.449219 420.976562 396.703125 C 420.722656 396.953125 420.445312 397.179688 420.148438 397.378906 C 419.851562 397.578125 419.535156 397.746094 419.207031 397.882812 C 418.875 398.019531 418.535156 398.125 418.183594 398.195312 C 417.832031 398.261719 417.476562 398.296875 417.117188 398.296875 C 416.761719 398.296875 416.40625 398.261719 416.054688 398.195312 C 415.703125 398.125 415.363281 398.019531 415.03125 397.882812 C 414.699219 397.746094 414.386719 397.578125 414.089844 397.378906 C 413.789062 397.179688 413.515625 396.953125 413.261719 396.703125 C 413.007812 396.449219 412.78125 396.171875 412.582031 395.875 C 412.382812 395.578125 412.214844 395.265625 412.078125 394.933594 C 411.941406 394.601562 411.839844 394.261719 411.769531 393.910156 C 411.699219 393.558594 411.664062 393.207031 411.664062 392.847656 C 411.675781 392.410156 411.640625 391.972656 411.566406 391.542969 C 411.488281 391.109375 411.371094 390.6875 411.207031 390.28125 C 411.046875 389.871094 410.847656 389.484375 410.609375 389.117188 C 410.367188 388.75 410.09375 388.410156 409.785156 388.097656 C 409.480469 387.785156 409.144531 387.503906 408.777344 387.257812 C 408.414062 387.015625 408.03125 386.808594 407.625 386.640625 C 407.21875 386.472656 406.800781 386.347656 406.367188 386.261719 C 405.9375 386.179688 405.503906 386.136719 405.0625 386.140625 C 404.625 386.140625 404.191406 386.183594 403.761719 386.269531 C 403.332031 386.355469 402.914062 386.484375 402.507812 386.652344 C 402.101562 386.816406 401.714844 387.023438 401.351562 387.269531 C 400.988281 387.511719 400.648438 387.789062 400.339844 388.097656 C 400.027344 388.40625 399.753906 388.746094 399.507812 389.109375 C 399.265625 389.472656 399.058594 389.859375 398.890625 390.265625 C 398.722656 390.667969 398.597656 391.085938 398.511719 391.515625 C 398.425781 391.945312 398.382812 392.382812 398.382812 392.820312 C 398.382812 393.257812 398.425781 393.691406 398.511719 394.121094 C 398.597656 394.550781 398.722656 394.96875 398.890625 395.375 C 399.058594 395.78125 399.265625 396.164062 399.507812 396.53125 C 399.753906 396.894531 400.027344 397.230469 400.339844 397.542969 C 400.648438 397.851562 400.988281 398.128906 401.351562 398.371094 C 401.714844 398.617188 402.101562 398.820312 402.507812 398.988281 C 402.914062 399.15625 403.332031 399.285156 403.761719 399.371094 C 404.191406 399.453125 404.625 399.496094 405.0625 399.496094 Z M 405.0625 399.496094 " fill-opacity="1" fill-rule="nonzero"/></svg>