<svg xmlns="http://www.w3.org/2000/svg" xmlns:xlink="http://www.w3.org/1999/xlink" width="1080" zoomAndPan="magnify" viewBox="0 0 810 809.999993" height="1080" preserveAspectRatio="xMidYMid meet" version="1.0"><defs><clipPath id="3961727ef0"><path d="M 225 247 L 563 247 L 563 585 L 225 585 Z M 225 247 " clip-rule="nonzero"/></clipPath><clipPath id="88616da24b"><path d="M 408 225 L 585 225 L 585 402 L 408 402 Z M 408 225 " clip-rule="nonzero"/></clipPath></defs><g clip-path="url(#3961727ef0)"><path fill="#231f20" d="M 551.800781 408.472656 C 537.960938 408.472656 524.117188 408.472656 510.277344 408.472656 C 501.15625 408.472656 491.957031 408.472656 482.703125 408.472656 C 456.828125 408.472656 430.558594 408.472656 404.617188 408.460938 C 403.832031 408.460938 403.164062 408.46875 402.574219 408.480469 C 402.21875 408.488281 401.847656 408.492188 401.519531 408.492188 C 401.519531 408.160156 401.523438 407.789062 401.53125 407.433594 C 401.539062 406.855469 401.550781 406.199219 401.550781 405.429688 C 401.539062 375.089844 401.539062 344.242188 401.539062 314.410156 C 401.539062 295.34375 401.539062 276.277344 401.535156 257.210938 C 401.535156 254.84375 401.269531 251.453125 398.96875 249.324219 C 397.382812 247.851562 395.171875 247.246094 392.203125 247.46875 C 390.070312 247.628906 387.890625 247.773438 385.777344 247.910156 C 378.296875 248.402344 370.558594 248.90625 363.039062 250.316406 C 352.679688 252.253906 342.636719 255.046875 333.1875 258.613281 C 323.769531 262.171875 314.683594 266.597656 306.1875 271.765625 C 297.722656 276.917969 289.613281 282.949219 282.082031 289.691406 C 274.582031 296.40625 267.457031 304.007812 260.894531 312.285156 C 252.226562 323.230469 245.035156 335.050781 239.523438 347.417969 C 234.003906 359.808594 230.027344 373.070312 227.707031 386.828125 C 226.964844 391.222656 226.386719 395.691406 225.824219 400.015625 C 225.566406 401.988281 225.300781 404.027344 225.023438 406.023438 L 225 406.203125 L 225 426.652344 L 225.023438 426.828125 C 225.234375 428.402344 225.441406 430.003906 225.644531 431.554688 C 226.082031 434.925781 226.53125 438.410156 227.039062 441.839844 C 229.222656 456.613281 233.273438 470.824219 239.082031 484.074219 C 244.878906 497.289062 252.570312 509.886719 261.945312 521.515625 C 274.015625 536.488281 287.878906 549.019531 303.144531 558.757812 C 318.574219 568.597656 335.8125 575.828125 354.386719 580.246094 C 360.257812 581.644531 366.308594 582.433594 372.15625 583.199219 C 374.890625 583.558594 377.714844 583.925781 380.464844 584.351562 C 380.945312 584.425781 381.464844 584.5625 382.015625 584.703125 C 382.304688 584.78125 382.605469 584.859375 382.914062 584.929688 L 383.214844 585.003906 L 403.792969 585.003906 L 403.96875 584.980469 C 406.210938 584.679688 408.511719 584.414062 410.734375 584.15625 C 415.628906 583.589844 420.6875 583.007812 425.628906 581.992188 C 437.949219 579.457031 449.71875 575.832031 460.613281 571.222656 C 471.515625 566.605469 481.835938 560.878906 491.289062 554.195312 C 500.738281 547.511719 509.578125 539.695312 517.5625 530.960938 C 525.535156 522.238281 532.875 512.359375 539.367188 501.605469 C 546.792969 489.3125 552.507812 476.070312 556.355469 462.242188 C 560.078125 448.863281 562.152344 434.582031 562.523438 419.789062 C 562.625 415.601562 562.3125 412.789062 560.386719 410.820312 C 558.484375 408.867188 555.691406 408.472656 551.796875 408.472656 Z M 260.671875 479.59375 C 267.484375 476.777344 274.292969 473.964844 281.101562 471.152344 C 283.910156 469.992188 286.019531 469.128906 287.882812 468.367188 L 289.71875 467.613281 C 303.515625 461.960938 315.132812 457.164062 320.09375 455.113281 C 328.03125 451.835938 332.867188 449.828125 334.691406 449.074219 C 335.167969 448.875 335.460938 448.753906 335.570312 448.707031 C 339.957031 446.898438 344.34375 445.089844 348.734375 443.28125 C 362.414062 437.648438 376.5625 431.820312 390.445312 425.992188 C 391.300781 425.632812 391.609375 425.664062 391.683594 425.679688 C 391.757812 425.699219 392.054688 425.808594 392.699219 426.511719 C 411.132812 446.625 429.929688 467.023438 448.101562 486.75 C 452.21875 491.21875 456.335938 495.6875 460.453125 500.15625 C 465.269531 505.386719 470.089844 510.613281 474.90625 515.84375 C 479.941406 521.308594 484.980469 526.773438 490.011719 532.242188 C 490.558594 532.832031 491.09375 533.425781 491.679688 534.070312 C 462.214844 557.546875 429.808594 569.355469 394.972656 569.355469 C 384.765625 569.355469 374.347656 568.339844 363.738281 566.308594 C 306.917969 555.425781 270.324219 514.503906 255.589844 481.691406 L 260.671875 479.589844 Z M 384.4375 411.675781 L 384.386719 411.695312 C 381.667969 412.636719 340.925781 429.3125 280.585938 454.0625 L 249.214844 467.25 C 233.375 417.535156 239.3125 371.671875 266.886719 330.882812 C 294.695312 289.742188 334.707031 266.992188 385.84375 263.234375 C 385.863281 263.644531 385.875 264.019531 385.875 264.382812 C 385.878906 275.570312 385.878906 286.757812 385.878906 297.945312 C 385.878906 334.394531 385.878906 372.082031 385.941406 409.152344 C 385.941406 410.015625 385.851562 410.589844 385.667969 410.867188 C 385.332031 411.371094 384.660156 411.601562 384.4375 411.675781 Z M 546.648438 424.300781 C 544.378906 462.738281 530.121094 495.207031 503.140625 523.390625 L 411.886719 424.300781 Z M 546.648438 424.300781 " fill-opacity="1" fill-rule="nonzero"/></g><g clip-path="url(#88616da24b)"><path fill="#231f20" d="M 584.941406 382.269531 C 584.863281 381.90625 584.777344 381.566406 584.691406 381.234375 C 584.542969 380.65625 584.402344 380.109375 584.367188 379.65625 C 583.851562 373.035156 582.925781 366.402344 581.621094 359.941406 C 579.007812 347.046875 573.207031 330.953125 568.828125 321.722656 C 565.355469 314.398438 561.300781 307.238281 556.78125 300.445312 C 545.839844 284 534.105469 272.496094 526.1875 265.742188 C 513.96875 255.316406 500.714844 246.78125 486.792969 240.367188 C 472.742188 233.898438 457.621094 229.414062 441.851562 227.039062 C 438.582031 226.542969 435.261719 226.089844 432.046875 225.648438 C 430.542969 225.441406 429.039062 225.238281 427.535156 225.023438 L 427.355469 225 L 414.042969 225 L 413.460938 225.304688 C 410.058594 227.109375 408.40625 230.105469 408.410156 234.46875 C 408.460938 271.453125 408.460938 309.058594 408.464844 345.425781 C 408.464844 361.046875 408.46875 376.671875 408.472656 392.292969 C 408.472656 394.558594 408.722656 397.410156 410.660156 399.34375 C 412.59375 401.273438 415.441406 401.519531 417.707031 401.519531 C 432.300781 401.523438 446.890625 401.523438 461.484375 401.523438 C 498.867188 401.527344 537.519531 401.527344 575.535156 401.582031 L 575.558594 401.582031 C 579.863281 401.582031 582.847656 399.9375 584.683594 396.5625 L 585.003906 395.972656 L 585.003906 382.546875 Z M 569.101562 385.574219 L 424.457031 385.574219 L 424.457031 240.558594 C 426.410156 240.824219 428.351562 241.078125 430.246094 241.320312 C 436.507812 242.132812 442.421875 242.894531 448.285156 244.148438 C 481.171875 251.160156 509.0625 267.527344 531.1875 292.792969 C 538.230469 300.839844 543.824219 309.152344 544.441406 310.074219 C 547.203125 314.21875 549.808594 318.539062 552.179688 322.910156 C 553.019531 324.65625 553.851562 326.441406 554.652344 328.222656 L 554.714844 328.363281 C 555.789062 330.722656 558.484375 336.773438 560.335938 341.929688 C 564.308594 352.996094 567.035156 364.691406 568.441406 376.691406 C 568.746094 379.3125 568.902344 382.027344 569.050781 384.65625 C 569.066406 384.960938 569.085938 385.265625 569.101562 385.574219 Z M 569.101562 385.574219 " fill-opacity="1" fill-rule="nonzero"/></g><path fill="#231f20" d="M 483.949219 319.960938 C 481.035156 319.300781 478.078125 318.851562 475.144531 318.273438 C 467.332031 316.738281 463.90625 312.03125 464.820312 304.109375 C 465.445312 298.664062 470.402344 293.78125 475.832031 293.070312 C 484.15625 291.980469 490.621094 298.765625 490.660156 305.992188 C 490.683594 309.894531 493.792969 312.644531 497.335938 312.484375 C 501.292969 312.304688 503.878906 309.445312 503.804688 305.335938 C 503.609375 294.492188 496.714844 284.917969 486.40625 281.324219 C 484.835938 280.777344 483.917969 280.09375 484.242188 278.316406 C 484.3125 277.921875 484.242188 277.503906 484.226562 277.097656 C 484.101562 274.457031 482.753906 272.625 480.433594 271.5 C 478.15625 270.398438 475.9375 270.660156 473.863281 272.054688 C 471.59375 273.582031 470.820312 275.828125 471.046875 278.433594 C 471.179688 279.964844 470.667969 280.75 469.148438 281.222656 C 464.265625 282.734375 460.5 285.8125 457.152344 289.636719 C 448.039062 300.042969 448.472656 323.605469 468.113281 330.042969 C 472.089844 331.347656 476.316406 331.894531 480.433594 332.753906 C 487.273438 334.183594 490.519531 337.996094 490.585938 344.730469 C 490.652344 351.902344 485.199219 357.699219 478.136719 358.007812 C 470.664062 358.335938 464.726562 352.03125 464.636719 345.105469 C 464.582031 341.074219 461.484375 338.28125 457.851562 338.5 C 453.921875 338.738281 451.382812 341.621094 451.476562 345.742188 C 451.722656 356.496094 458.613281 366.128906 468.769531 369.632812 C 470.585938 370.261719 470.996094 371.144531 471.136719 372.964844 C 471.277344 374.734375 471.902344 376.757812 473.007812 378.097656 C 474.78125 380.246094 477.40625 380.753906 480.074219 379.644531 C 482.769531 378.519531 484.394531 376.453125 484.191406 373.472656 C 484.035156 371.191406 484.867188 370.304688 486.996094 369.4375 C 496.5625 365.535156 502.304688 358.421875 503.628906 348.066406 C 505.398438 334.210938 497.550781 323.042969 483.953125 319.964844 Z M 483.949219 319.960938 " fill-opacity="1" fill-rule="nonzero"/><path fill="#231f20" d="M 515.414062 493.644531 C 518.007812 493.644531 519.640625 492.542969 520.550781 491.621094 C 521.460938 490.699219 522.539062 489.050781 522.507812 486.453125 C 522.496094 485.691406 522.453125 485 522.371094 484.347656 C 521.304688 475.859375 516.609375 469.445312 508.792969 465.792969 C 506.605469 464.773438 504.160156 465.035156 502.25 466.496094 C 499.832031 468.347656 496.695312 468.335938 494.261719 466.46875 C 492.449219 465.078125 490.1875 464.78125 488.050781 465.660156 C 483.984375 467.328125 480.488281 470.210938 477.941406 473.996094 C 475.390625 477.785156 474.039062 482.109375 474.027344 486.5 C 474.023438 489.097656 475.105469 490.730469 476.019531 491.644531 C 476.929688 492.554688 478.5625 493.644531 481.171875 493.644531 C 483.144531 493.644531 485.113281 493.644531 487.082031 493.644531 C 490.8125 493.644531 494.539062 493.644531 498.265625 493.644531 L 498.269531 493.644531 C 499.523438 493.644531 500.773438 493.644531 502.027344 493.644531 L 505.621094 493.644531 C 508.886719 493.644531 512.152344 493.644531 515.414062 493.644531 Z M 498.265625 482.578125 C 494.128906 482.578125 490 482.578125 485.867188 482.578125 C 486.738281 480.34375 488.292969 478.339844 490.257812 476.984375 C 495.304688 479.597656 501.203125 479.605469 506.242188 477.015625 C 508.367188 478.441406 509.816406 480.265625 510.65625 482.578125 C 508.976562 482.578125 507.296875 482.578125 505.617188 482.578125 L 502.027344 482.578125 C 500.773438 482.578125 499.519531 482.578125 498.261719 482.578125 Z M 498.265625 482.578125 " fill-opacity="1" fill-rule="nonzero"/><path fill="#231f20" d="M 498.292969 465.164062 L 498.308594 465.164062 C 507.214844 465.164062 514.484375 457.890625 514.515625 448.945312 C 514.527344 444.648438 512.851562 440.585938 509.789062 437.511719 C 506.71875 434.429688 502.652344 432.730469 498.332031 432.726562 L 498.3125 432.726562 C 493.933594 432.726562 489.824219 434.425781 486.742188 437.515625 C 483.6875 440.574219 482.011719 444.636719 482.023438 448.945312 C 482.035156 453.289062 483.734375 457.367188 486.800781 460.421875 C 489.867188 463.476562 493.945312 465.160156 498.292969 465.164062 Z M 494.574219 445.332031 C 495.566406 444.339844 496.894531 443.792969 498.3125 443.792969 L 498.320312 443.792969 C 499.675781 443.792969 500.964844 444.335938 501.945312 445.320312 C 502.917969 446.296875 503.453125 447.574219 503.445312 448.910156 C 503.4375 451.773438 501.132812 454.097656 498.308594 454.097656 L 498.304688 454.097656 C 495.390625 454.09375 493.097656 451.816406 493.089844 448.914062 C 493.085938 447.566406 493.613281 446.296875 494.574219 445.332031 Z M 494.574219 445.332031 " fill-opacity="1" fill-rule="nonzero"/><path fill="#231f20" d="M 347.34375 472.132812 L 361.214844 472.132812 L 361.214844 529.667969 L 347.34375 529.667969 Z M 347.34375 472.132812 " fill-opacity="1" fill-rule="nonzero"/><path fill="#231f20" d="M 372.101562 491.164062 L 385.972656 491.164062 L 385.972656 529.667969 L 372.101562 529.667969 Z M 372.101562 491.164062 " fill-opacity="1" fill-rule="nonzero"/><path fill="#231f20" d="M 396.859375 457.292969 L 410.730469 457.292969 L 410.730469 529.667969 L 396.859375 529.667969 Z M 396.859375 457.292969 " fill-opacity="1" fill-rule="nonzero"/><path fill="#231f20" d="M 322.585938 532.828125 L 414.144531 532.828125 L 414.144531 538.265625 L 322.585938 538.265625 Z M 322.585938 532.828125 " fill-opacity="1" fill-rule="nonzero"/><path fill="#231f20" d="M 322.585938 491.164062 L 336.457031 491.164062 L 336.457031 529.667969 L 322.585938 529.667969 Z M 322.585938 491.164062 " fill-opacity="1" fill-rule="nonzero"/><path fill="#231f20" d="M 313.5 316.152344 C 313.410156 316.152344 313.324219 316.152344 313.234375 316.152344 C 300.121094 316.152344 287.792969 321.21875 278.503906 330.429688 C 269.078125 339.773438 263.867188 352.289062 263.820312 365.667969 C 263.777344 378.75 268.867188 391.097656 278.15625 400.441406 C 287.503906 409.84375 299.941406 415.035156 313.167969 415.066406 L 313.28125 415.066406 C 326.390625 415.066406 338.742188 409.949219 348.074219 400.648438 C 357.433594 391.320312 362.601562 378.933594 362.625 365.773438 C 362.652344 352.578125 357.5625 340.152344 348.289062 330.789062 C 339.015625 321.421875 326.660156 316.222656 313.5 316.15625 Z M 341.109375 393.699219 C 333.644531 401.101562 323.734375 405.171875 313.183594 405.171875 C 313.125 405.171875 313.066406 405.171875 313.007812 405.171875 C 302.476562 405.128906 292.5625 400.972656 285.09375 393.46875 C 277.632812 385.96875 273.546875 376.0625 273.59375 365.578125 C 273.640625 354.933594 277.808594 344.964844 285.332031 337.511719 C 292.804688 330.101562 302.734375 326.03125 313.304688 326.03125 C 313.367188 326.03125 313.433594 326.03125 313.5 326.03125 C 335.257812 326.132812 352.894531 343.933594 352.8125 365.710938 C 352.773438 376.316406 348.617188 386.257812 341.113281 393.699219 Z M 341.109375 393.699219 " fill-opacity="1" fill-rule="nonzero"/><path fill="#231f20" d="M 339.09375 384.601562 C 338.902344 384.398438 338.730469 384.21875 338.570312 384.050781 C 338.234375 383.695312 337.953125 383.398438 337.664062 383.109375 L 333.707031 379.148438 C 328.644531 374.082031 323.410156 368.839844 318.234375 363.710938 C 318.195312 363.671875 318.167969 363.640625 318.148438 363.621094 C 318.148438 363.601562 318.148438 363.578125 318.148438 363.546875 C 318.179688 356.503906 318.175781 349.347656 318.175781 342.425781 C 318.175781 340.265625 318.171875 338.105469 318.171875 335.941406 L 318.171875 334.121094 C 318.171875 332.1875 316.601562 330.617188 314.667969 330.617188 L 311.859375 330.617188 C 310.054688 330.617188 308.546875 331.988281 308.371094 333.78125 C 308.363281 333.878906 308.351562 333.964844 308.34375 334.035156 C 308.316406 334.257812 308.285156 334.527344 308.285156 334.855469 L 308.28125 340.046875 C 308.277344 348.253906 308.269531 356.742188 308.324219 365.09375 C 308.335938 366.957031 309.371094 368.664062 310.339844 369.644531 C 314.277344 373.632812 318.300781 377.65625 322.191406 381.550781 C 324.496094 383.855469 326.800781 386.160156 329.097656 388.472656 C 329.683594 389.054688 330.246094 389.703125 330.789062 390.328125 C 331.042969 390.617188 331.285156 390.898438 331.515625 391.152344 C 332.722656 392.496094 334.746094 392.703125 336.199219 391.636719 L 338.632812 389.84375 C 340.335938 388.59375 340.550781 386.128906 339.089844 384.601562 Z M 339.09375 384.601562 " fill-opacity="1" fill-rule="nonzero"/></svg>