<svg xmlns="http://www.w3.org/2000/svg" xmlns:xlink="http://www.w3.org/1999/xlink" width="1080" zoomAndPan="magnify" viewBox="0 0 810 809.999993" height="1080" preserveAspectRatio="xMidYMid meet" version="1.0"><defs><clipPath id="6472562734"><path d="M 295 280 L 516 280 L 516 606.710938 L 295 606.710938 Z M 295 280 " clip-rule="nonzero"/></clipPath><clipPath id="5733d817a1"><path d="M 397 203.210938 L 415 203.210938 L 415 252 L 397 252 Z M 397 203.210938 " clip-rule="nonzero"/></clipPath><clipPath id="4e69a33a4e"><path d="M 225.15625 427 L 272 427 L 272 455 L 225.15625 455 Z M 225.15625 427 " clip-rule="nonzero"/></clipPath></defs><rect x="-81" width="972" fill="#ffffff" y="-80.999999" height="971.999992" fill-opacity="1"/><rect x="-81" width="972" fill="#ffffff" y="-80.999999" height="971.999992" fill-opacity="1"/><path fill="#000000" d="M 416.546875 355.507812 L 416.546875 335.566406 L 397.113281 335.566406 L 397.113281 355.507812 C 383.46875 359.621094 374.082031 372.199219 374.082031 386.703125 C 374.082031 404.789062 388.8125 419.503906 406.921875 419.503906 C 414.3125 419.503906 420.324219 425.429688 420.324219 432.714844 C 420.324219 440.097656 414.3125 446.105469 406.921875 446.105469 C 399.53125 446.105469 393.515625 440.097656 393.515625 432.714844 L 393.515625 430.46875 L 374.082031 430.46875 L 374.082031 432.714844 C 374.082031 447.132812 383.46875 459.785156 397.113281 464.070312 L 397.113281 483.855469 L 416.546875 483.855469 L 416.546875 464.070312 C 430.300781 459.769531 439.757812 447.117188 439.757812 432.714844 C 439.757812 414.726562 425.027344 400.09375 406.917969 400.09375 C 399.652344 400.09375 393.515625 393.960938 393.515625 386.703125 C 393.515625 379.320312 399.527344 373.3125 406.917969 373.3125 C 414.308594 373.3125 420.324219 379.320312 420.324219 386.703125 L 420.324219 388.949219 L 439.757812 388.949219 L 439.757812 386.703125 C 439.757812 372.222656 430.296875 359.640625 416.546875 355.507812 Z M 416.546875 355.507812 " fill-opacity="1" fill-rule="nonzero"/><g clip-path="url(#6472562734)"><path fill="#000000" d="M 397.929688 281.101562 C 343.058594 284.617188 298.980469 328.597656 295.394531 383.402344 C 293.492188 412.542969 302.9375 440.691406 321.976562 462.648438 C 324.621094 465.703125 329.984375 474.300781 336.117188 497.59375 C 339.253906 509.492188 346.066406 519.644531 355.101562 527.019531 L 355.101562 553.527344 C 355.101562 568.503906 364.886719 581.183594 378.414062 585.574219 C 379.523438 595.742188 384.496094 606.710938 390.480469 606.710938 L 421.804688 606.710938 C 427.785156 606.710938 432.761719 595.742188 433.867188 585.574219 C 447.394531 581.183594 457.179688 568.503906 457.179688 553.527344 L 457.179688 524.988281 C 465.128906 517.714844 471.070312 508.144531 473.910156 497.105469 C 479.636719 474.820312 484.886719 466.539062 487.503906 463.59375 C 505.328125 443.5 515.148438 417.632812 515.148438 390.753906 C 515.148438 327.773438 461.910156 277.042969 397.929688 281.101562 Z M 470.664062 448.6875 C 463.527344 456.738281 457.457031 470.746094 452.121094 491.515625 C 448.210938 506.707031 434.65625 517.316406 419.160156 517.316406 L 390.734375 517.316406 C 375.335938 517.316406 361.824219 506.855469 357.875 491.875 C 352.230469 470.464844 346.054688 456.09375 338.980469 447.9375 C 323.835938 430.472656 316.332031 408.074219 317.847656 384.867188 C 320.695312 341.289062 355.742188 306.320312 399.367188 303.53125 C 401.308594 303.410156 403.230469 303.347656 405.144531 303.347656 C 453.394531 303.347656 492.652344 342.558594 492.652344 390.753906 C 492.652344 412.132812 484.84375 432.707031 470.664062 448.6875 Z M 470.664062 448.6875 " fill-opacity="1" fill-rule="nonzero"/></g><path fill="#000000" d="M 516.613281 239.734375 C 515.265625 238.738281 513.601562 238.214844 511.804688 238.214844 C 509.019531 238.214844 506.390625 239.515625 504.960938 241.589844 L 486.503906 266.914062 C 483.824219 270.640625 484.660156 275.84375 488.351562 278.5 C 489.738281 279.53125 491.417969 280.078125 493.214844 280.078125 C 495.949219 280.078125 498.496094 278.8125 500.027344 276.691406 L 518.417969 251.359375 C 519.730469 249.574219 520.269531 247.378906 519.925781 245.179688 C 519.578125 242.980469 518.402344 241.050781 516.613281 239.734375 Z M 516.613281 239.734375 " fill-opacity="1" fill-rule="nonzero"/><g clip-path="url(#5733d817a1)"><path fill="#000000" d="M 406.191406 251.164062 C 410.777344 251.164062 414.511719 247.433594 414.511719 242.851562 L 414.511719 211.574219 C 414.511719 206.964844 410.777344 203.210938 406.191406 203.210938 C 401.597656 203.210938 397.863281 206.964844 397.863281 211.574219 L 397.863281 242.851562 C 397.863281 247.433594 401.597656 251.164062 406.191406 251.164062 Z M 406.191406 251.164062 " fill-opacity="1" fill-rule="nonzero"/></g><path fill="#000000" d="M 318.792969 278.84375 C 320.574219 278.84375 322.25 278.3125 323.648438 277.296875 C 325.441406 275.988281 326.613281 274.058594 326.960938 271.863281 C 327.304688 269.65625 326.769531 267.460938 325.457031 265.683594 L 307.027344 240.285156 C 305.515625 238.28125 302.863281 237.03125 300.097656 237.03125 C 298.308594 237.03125 296.640625 237.558594 295.449219 238.484375 C 293.613281 239.785156 292.394531 241.769531 292.105469 243.886719 C 291.722656 246.070312 292.230469 248.28125 293.550781 250.136719 L 311.988281 275.476562 C 313.511719 277.582031 316.054688 278.84375 318.792969 278.84375 Z M 318.792969 278.84375 " fill-opacity="1" fill-rule="nonzero"/><path fill="#000000" d="M 266.867188 336.457031 L 236.867188 326.695312 C 232.355469 325.484375 227.945312 327.839844 226.519531 332.113281 C 225.835938 334.257812 226.023438 336.550781 227.007812 338.375 C 227.980469 340.394531 229.71875 341.898438 231.886719 342.589844 L 261.652344 352.25 C 262.472656 352.523438 263.328125 352.660156 264.195312 352.660156 C 267.789062 352.660156 271.074219 350.3125 272.175781 346.949219 C 272.875 344.820312 272.691406 342.542969 271.664062 340.539062 C 270.644531 338.5625 268.9375 337.113281 266.867188 336.457031 Z M 266.867188 336.457031 " fill-opacity="1" fill-rule="nonzero"/><g clip-path="url(#4e69a33a4e)"><path fill="#000000" d="M 263.613281 427.703125 C 262.808594 427.703125 262.03125 427.816406 261.042969 428.09375 L 231.273438 437.75 C 229.167969 438.429688 227.398438 439.9375 226.429688 441.875 C 225.378906 443.878906 225.191406 446.140625 225.890625 448.21875 C 226.960938 451.628906 230.242188 454.007812 233.855469 454.007812 C 234.738281 454.007812 235.601562 453.875 236.398438 453.601562 L 266.195312 443.9375 C 268.3125 443.242188 270.035156 441.773438 271.042969 439.808594 C 272.0625 437.820312 272.242188 435.558594 271.542969 433.453125 C 270.429688 430.011719 267.242188 427.703125 263.613281 427.703125 Z M 263.613281 427.703125 " fill-opacity="1" fill-rule="nonzero"/></g><path fill="#000000" d="M 546.71875 354.644531 C 547.59375 354.644531 548.457031 354.503906 549.265625 354.230469 L 579.054688 344.570312 C 581.175781 343.878906 582.894531 342.414062 583.90625 340.441406 C 584.925781 338.453125 585.101562 336.183594 584.402344 334.054688 C 583.265625 330.636719 580.078125 328.335938 576.476562 328.335938 C 575.65625 328.335938 574.878906 328.449219 573.902344 328.726562 L 544.136719 338.429688 C 541.980469 339.121094 540.257812 340.574219 539.292969 342.511719 C 538.257812 344.488281 538.070312 346.765625 538.757812 348.917969 C 539.84375 352.285156 543.117188 354.644531 546.71875 354.644531 Z M 546.71875 354.644531 " fill-opacity="1" fill-rule="nonzero"/><path fill="#000000" d="M 578.417969 439.738281 L 548.480469 430.023438 C 547.902344 429.867188 547.015625 429.683594 546.066406 429.683594 C 542.453125 429.683594 539.1875 432.046875 538.128906 435.421875 C 536.710938 439.761719 539.09375 444.46875 543.449219 445.921875 L 573.253906 455.578125 C 574.074219 455.847656 574.929688 455.984375 575.792969 455.984375 C 579.398438 455.984375 582.683594 453.621094 583.777344 450.246094 C 584.476562 448.140625 584.300781 445.878906 583.273438 443.894531 C 582.28125 441.921875 580.511719 440.40625 578.417969 439.738281 Z M 578.417969 439.738281 " fill-opacity="1" fill-rule="nonzero"/></svg>