<svg xmlns="http://www.w3.org/2000/svg" xmlns:xlink="http://www.w3.org/1999/xlink" width="1080" zoomAndPan="magnify" viewBox="0 0 810 809.999993" height="1080" preserveAspectRatio="xMidYMid meet" version="1.0"><defs><clipPath id="e282e74b6d"><path d="M 225.023438 163.828125 L 585 163.828125 L 585 485 L 225.023438 485 Z M 225.023438 163.828125 " clip-rule="nonzero"/></clipPath></defs><path fill="#100f0d" d="M 261.855469 539.414062 C 261.855469 525.84375 280.847656 523.609375 301.625 535.484375 L 308.742188 516.675781 C 301.121094 512.210938 295.167969 509.476562 284.597656 508.550781 L 284.597656 490.339844 C 278.554688 492.511719 272.628906 494.535156 266.082031 496.648438 L 266.082031 509.710938 C 249.914062 513.492188 239.050781 525.542969 239.050781 541.585938 C 239.050781 560.214844 253.519531 569.144531 270.933594 575.988281 C 307.730469 590.898438 282.632812 624.019531 243.542969 597.949219 L 236.699219 617.054688 C 243.960938 622.234375 252.207031 626.074219 264.832031 627.085938 L 264.832031 645.328125 L 283.527344 645.328125 L 283.527344 626.042969 C 313.265625 619.078125 318.773438 587.414062 303.917969 570.601562 C 289.183594 553.847656 261.855469 554.648438 261.855469 539.414062 " fill-opacity="1" fill-rule="nonzero"/><path fill="#100f0d" d="M 348.246094 463.347656 L 348.246094 645.507812 L 389.300781 645.507812 C 389.300781 619.851562 389.300781 465.875 389.300781 440.164062 C 376.050781 448.4375 362.535156 456.054688 348.246094 463.347656 " fill-opacity="1" fill-rule="nonzero"/><g clip-path="url(#e282e74b6d)"><path fill="#100f0d" d="M 565.601562 163.636719 C 551.785156 171.730469 518.832031 191.046875 509.15625 196.730469 L 525.171875 202.890625 C 531.273438 199.257812 528.03125 201.195312 541.605469 193.128906 C 493.734375 342.703125 347.890625 436.234375 225.859375 463.347656 C 228.691406 476.589844 227.648438 471.679688 230.445312 484.894531 C 267.035156 477.15625 494.867188 412.429688 562.863281 199.019531 C 568.101562 215.894531 566.613281 211.042969 569.292969 219.613281 L 584.949219 225.6875 C 567.714844 170.421875 572.863281 186.910156 565.601562 163.636719 " fill-opacity="1" fill-rule="nonzero"/></g><path fill="#100f0d" d="M 425.796875 645.507812 L 466.851562 645.507812 C 466.851562 612.5625 466.851562 413.648438 466.851562 380.316406 C 454.082031 392.519531 440.386719 404.15625 425.796875 415.136719 C 425.796875 514.296875 425.796875 547.03125 425.796875 645.507812 " fill-opacity="1" fill-rule="nonzero"/><path fill="#100f0d" d="M 503.351562 645.507812 L 544.402344 645.507812 C 544.402344 559.5 544.402344 359.84375 544.402344 278.421875 C 532.824219 300.292969 519.128906 321.066406 503.351562 340.675781 C 503.351562 377.550781 503.351562 608.695312 503.351562 645.507812 " fill-opacity="1" fill-rule="nonzero"/></svg>